<mxfile host="65bd71144e">
    <diagram id="kQYxfyFseVmcCptCt79h" name="Page-1">
        <mxGraphModel dx="916" dy="840" grid="1" gridSize="10" guides="1" tooltips="1" connect="1" arrows="1" fold="1" page="1" pageScale="1" pageWidth="1169" pageHeight="827" math="0" shadow="0">
            <root>
                <mxCell id="0"/>
                <mxCell id="1" parent="0"/>
                <mxCell id="106" value="" style="ellipse;whiteSpace=wrap;html=1;aspect=fixed;collapsible=0;fillColor=none;opacity=15;" parent="1" vertex="1">
                    <mxGeometry x="139.39999999999998" y="76" width="472" height="472" as="geometry">
                        <mxRectangle x="100" y="500" width="50" height="40" as="alternateBounds"/>
                    </mxGeometry>
                </mxCell>
                <mxCell id="2" value="" style="shape=umlActor;verticalLabelPosition=bottom;verticalAlign=top;html=1;outlineConnect=0;points=[[0,0.33,0,0,0],[0,1,0,0,0],[0.27,0.1,0,0,0],[0.5,0,0,0,0],[0.5,0.5,0,0,0],[0.77,0.1,0,0,0],[1,0.33,0,0,0],[1,0.5,0,0,0],[1,1,0,0,0]];" parent="1" vertex="1">
                    <mxGeometry x="230" y="282" width="30" height="60" as="geometry"/>
                </mxCell>
                <mxCell id="12" style="edgeStyle=none;html=1;exitX=0.5;exitY=0;exitDx=0;exitDy=0;" parent="1" source="7" target="88" edge="1">
                    <mxGeometry relative="1" as="geometry">
                        <mxPoint x="330" y="202" as="targetPoint"/>
                    </mxGeometry>
                </mxCell>
                <mxCell id="13" value="creates &amp;amp;&lt;br&gt;uses" style="edgeLabel;html=1;align=center;verticalAlign=middle;resizable=0;points=[];" parent="12" vertex="1" connectable="0">
                    <mxGeometry x="-0.2523" y="-2" relative="1" as="geometry">
                        <mxPoint x="-31" y="-43" as="offset"/>
                    </mxGeometry>
                </mxCell>
                <mxCell id="17" style="edgeStyle=none;html=1;exitX=1;exitY=0.5;exitDx=0;exitDy=0;entryX=0;entryY=0.5;entryDx=0;entryDy=0;" parent="1" source="7" target="16" edge="1">
                    <mxGeometry relative="1" as="geometry"/>
                </mxCell>
                <mxCell id="18" value="creates" style="edgeLabel;html=1;align=center;verticalAlign=middle;resizable=0;points=[];" parent="17" vertex="1" connectable="0">
                    <mxGeometry x="-0.0952" y="1" relative="1" as="geometry">
                        <mxPoint as="offset"/>
                    </mxGeometry>
                </mxCell>
                <mxCell id="20" style="edgeStyle=none;html=1;exitX=0.5;exitY=1;exitDx=0;exitDy=0;entryX=0.5;entryY=0;entryDx=0;entryDy=0;" parent="1" source="7" target="37" edge="1">
                    <mxGeometry relative="1" as="geometry">
                        <mxPoint x="643" y="225.49999999999994" as="targetPoint"/>
                    </mxGeometry>
                </mxCell>
                <mxCell id="21" value="creates" style="edgeLabel;html=1;align=center;verticalAlign=middle;resizable=0;points=[];" parent="20" vertex="1" connectable="0">
                    <mxGeometry x="-0.2013" y="-2" relative="1" as="geometry">
                        <mxPoint x="1" as="offset"/>
                    </mxGeometry>
                </mxCell>
                <mxCell id="23" style="edgeStyle=none;html=1;exitX=1;exitY=0.5;exitDx=0;exitDy=0;entryX=0.5;entryY=0;entryDx=0;entryDy=0;" parent="1" source="7" target="22" edge="1">
                    <mxGeometry relative="1" as="geometry"/>
                </mxCell>
                <mxCell id="24" value="creates" style="edgeLabel;html=1;align=center;verticalAlign=middle;resizable=0;points=[];" parent="23" vertex="1" connectable="0">
                    <mxGeometry x="0.253" y="1" relative="1" as="geometry">
                        <mxPoint as="offset"/>
                    </mxGeometry>
                </mxCell>
                <mxCell id="27" style="edgeStyle=none;html=1;exitX=1;exitY=0.5;exitDx=0;exitDy=0;" parent="1" source="7" edge="1">
                    <mxGeometry relative="1" as="geometry">
                        <mxPoint x="480" y="120" as="targetPoint"/>
                    </mxGeometry>
                </mxCell>
                <mxCell id="41" value="creates" style="edgeLabel;html=1;align=center;verticalAlign=middle;resizable=0;points=[];" parent="27" vertex="1" connectable="0">
                    <mxGeometry x="0.2251" relative="1" as="geometry">
                        <mxPoint as="offset"/>
                    </mxGeometry>
                </mxCell>
                <mxCell id="40" style="edgeStyle=none;html=1;exitX=1;exitY=0.5;exitDx=0;exitDy=0;entryX=0;entryY=0.5;entryDx=0;entryDy=0;" parent="1" source="7" target="39" edge="1">
                    <mxGeometry relative="1" as="geometry"/>
                </mxCell>
                <mxCell id="42" value="creates" style="edgeLabel;html=1;align=center;verticalAlign=middle;resizable=0;points=[];" parent="40" vertex="1" connectable="0">
                    <mxGeometry x="0.0779" y="-1" relative="1" as="geometry">
                        <mxPoint as="offset"/>
                    </mxGeometry>
                </mxCell>
                <mxCell id="47" style="edgeStyle=none;html=1;exitX=1;exitY=0.5;exitDx=0;exitDy=0;entryX=0.5;entryY=0;entryDx=0;entryDy=0;" parent="1" source="7" target="46" edge="1">
                    <mxGeometry relative="1" as="geometry">
                        <mxPoint x="502.62174113412925" y="582" as="targetPoint"/>
                    </mxGeometry>
                </mxCell>
                <mxCell id="48" value="creates" style="edgeLabel;html=1;align=center;verticalAlign=middle;resizable=0;points=[];" parent="47" vertex="1" connectable="0">
                    <mxGeometry x="0.1489" y="-2" relative="1" as="geometry">
                        <mxPoint x="1" as="offset"/>
                    </mxGeometry>
                </mxCell>
                <mxCell id="100" value="" style="edgeStyle=none;html=1;exitX=0.5;exitY=0;exitDx=0;exitDy=0;entryX=0.5;entryY=1;entryDx=0;entryDy=0;" parent="1" source="7" target="93" edge="1">
                    <mxGeometry relative="1" as="geometry"/>
                </mxCell>
                <mxCell id="101" value="creates" style="edgeLabel;html=1;align=center;verticalAlign=middle;resizable=0;points=[];" parent="100" vertex="1" connectable="0">
                    <mxGeometry x="0.2345" y="-2" relative="1" as="geometry">
                        <mxPoint as="offset"/>
                    </mxGeometry>
                </mxCell>
                <UserObject label="VS Code" linkTarget="_blank" id="7">
                    <mxCell style="shape=image;verticalLabelPosition=bottom;labelBackgroundColor=default;verticalAlign=top;aspect=fixed;imageAspect=0;image=data:image/png,iVBORw0KGgoAAAANSUhEUgAAAL0AAAC6CAMAAADMDLy6AAAAnFBMVEX///88mdQkicoId7kQcLPN4fIdkNEtlNK41ewkhcQwkM8AcLYAgccAdLgAcrcahskAa7T4+/0AfcYAZa7q8fja5fDx9vsAecRNmNDF2u3T5fNgqNrj7fYIjM+myOW/0eWtxuBCg76XutlRi8KHtdyRu99bn9N5tN9srNqZxOUofLuOstaEqdFkl8hLn9alvtsAYK9xoMwAU6c4drb4K0eLAAAJTElEQVR4nO3deX+qOhMAYMQFKyCgSAWt4latS5fT7//d3kBrVcg2Qyrp777z/7nnuTlhJpkEMYz/x38+gnAa1m3ARvKy3U1225ekbggignXPNK2GZVmNyZ/7B0hWfr/ZdB8aWTytp3V7QBHv7SYJt2/mfKuzSYK6TdIx/8Jn/l7Ob3SsTfxH/Knbb57ja+5k/sY2rhsmE6nrNi/RO/Mb5PnVP/8s/Wv8ZfDzf4DXdt08bgSHYbPJ1JP88xxHdRuZER0L+KK+YT3tupoWgPDDbwr0xG/tZjqO//RkF/EUfeZ/nWmXP6eLMp6qz0Oz8R+1KHi2vtObaTT/k5s0L9Zn+XOmSwGY76l4nj7zb7Twz5t0PF9PHuBXDRagbz4DL9JnCWhb7/wPDu8Mu4Q+L2DT+hJoVFwdAPXZBmDdrimBhh+0TAnS5/OnlgV0dOpz8LL6bAE9uz8+eODi5fXE/3JvfOjz8RB9o3HnyZPsBXiQ3lrfNfWwCix27J/vWblS4cgD9dYd1w3sAovVd+637eXVKN31wZFXozTXR9wCq7k+oOxg/4w+oO1g/4p+9CnOlNrq44U8Xjv9XH7a6KdPm4CR101/3Zz/c/qlzOpAU31wKHVZ/44+OILx+uijcn/7bvrK25ZQenWgXD8zHWdcaecyWmHwKvTR+NE0TW9QoeffBtUolfrRs2Pm4Wyxwx83cfjq+mTsmd/hPOOaDnNYgVWoj3s/eMI3MR2rlNXf/nV9PLjCk8nvbMGTP7XReLeSPngZmIVwxrCaECzZ/W1R2ItJBX2wcYp4wve6AHzEac6Lwj+NYgutD9ZeGZ+lzo30cQXlAFk2XP8YGl28/pmKz3PPSBKPKrB59PspecLQ+mjMwpPhN6VmT7TCZkoy5fO2HlY/6lHm/CUeJRq2YR878q59+vpPIPXxmIs3zYGwYzsC7qOuBn5/MKrouz32tDlP/jF/9sQSLWIGfvVT0lH6xBHis8m/5uAlmvOM8D8uKQ2l5zyw13xvzMTjC+z78uqJwuhjGXvudxjLNnSB7TdvkjZG35XVk+F/oZzzRogd7FfYp9tcgNGH0noy+rtS5Yokm/OlcO1loYqj5v3Lo7zfGRdmT8A/QGZH3y3NQ1zGXAL4XmHRj9wENv1Fef2BrFZdmZx5jsHuMltDF4d37SOlemNXCl0TwHd65z8oPkCmh71Py/YKq7RYXG6vZo/XzUduDmnOX4W/oqde/Ao5gYy+6WV3lGQOkClBZg1j0VRhfS9YZhb54xBZYF37jbVgraA3psz9CZXv4BYH/U/2CX0VvRHuIKNP/gcQA98/cXYKlfRGtC41FfgBHvj9gbfNqaYnO3Mg3wHh7f2cu0erqKe1dPgBmT3DlaA7UVVvGDNI2c1iL2l3/SPfrkIPK7vyw09mjQivQg8ru7J8/yRxlUmFXtxhKMaDcNYMDzINOSV6I4HyTf6mvG+nUr1oNXpjCubzhv+7U3Y3vRE8K+O79ofspWdVesMArhpMVuG190tJu0p9sAbzaZnfXokT5S/o6YcR/CinTv8DcvCoUG8YL2B+cfYMD/y/4Tf1sM36V1zPnv4n8MhUrV6muVyMn9lDlvLQ42rFenjZJalz/50oD+C3Q1TrjZFcg7k0/K7NX8rfR29E0CVnzvebmPei1OsNA7hfycL5QF0wUa8PTz5cb/a6GL5y/XTlt1zE3BmsEVNHtX5E8K2Wu4ePvvMMf7NCsX7azPAkEHyvB7nh8Av65F/rHAi++Qi9H6NSH8yHrUs0EfwB8G6eyjXmW8tuVeQ7sNyjUL+8xeP4ngl5JU2d/sMv4EnqwfC9sfxyR5n+9F60I/kk9UuvkxXpo9OQgifxgPE7G8nhV6OfsvAtF8cvn1H/nn66YuGRiV94P0ahfvrps/FIvmfKvIusQN8uZspiYDInGf6JuHJV16flTKmI3xPmnsr6N9HI4/meI+rFVtUfbAk84cNX/PnwC34HpKL+MJTCEz4qc5remLvor6Y/cjKlIr6T/pI+ZNYoWtgPuNnzuGMX3gp6doGlhf+ZwpvMeTjs2YPXcwtsKYbZHZUNvM2ZhddjvVKB1rdB+Pdj3jEAn+1+882dWn17z10d3Ib9L/3+Y0g+GX5qvwSpn/sA/PV9OPDR9JlPzT04fSqb5nP8zXFIDLqTdM2nvFKB0rdp+yiW3U9vM14b3iP/Ckq7CqVfyY/8cF9aao3Ah6NnfqldhdJ/yuNpxyEhdvQ9b6NAv5CdNS3G0St29IuvVKD0M7l5P1wwj17hR9Pf4XjXFROlDxYylWr4wd5aB2sPlzlJ7rn69UhcxhyJ+bbPPUQLEGe7Z//lWjOyWo1E6wR7KDqwnwHukRf45jl1YlcK0YlbbP29wE4iRq4aSDxuqumNgLMzsVvC+3BZtOFH0+cY7MJKes7Gyt/L3Wy6fi8aGl+vVFTZWy3pvZD3leRLkpgrVRd+b1NxX7ukjf4/6ZtNJKIGPvU4u4q78nInyvZTeXsW6LKbzZ4NAE/piMxbt6nHl5813xHs0HOfrHuq6Y354po/PMKPjCP4laqf6InNXL2RXMqu30rBdhLBDHGxQZE+P9r/GvgF9hcou9iyW11P1my+TcI/4X+7F1t2FegN47BYLCAXEcuBLLtK9GS7VPU3k9uosqtIXz1GmLKrjR61atBHb4QTMF8jvRGBm8w66eE3mbXSk+0irOxqpgc2mXXTG11Iq0Q7Pej9J/30kCazhnrA+0866uV75FrqjVCSr6detsmsq95YyyR+bfXGRiLxg/SNu343ZybmQ/TW7r5fnRGvGiD6zr2/GdIWjT5Ab93/i5+J4GgaMvY1fG1GULek9ZZVy6dy+L/2Iat/mtT0ocyIN/py+qdGjR855PBl9JYFfp1FaWyZqUeotxqTGj6udBMBs+wK9FZHhw9LBjOUvjPR5KOec3qPnKd/etXng6rtAW342fqaEjwrEtpmnaEnz2q9eaYco9cyn6q3rC3qhdHfjWk58VP0JM90tZnv1xE9F/uEZf3TpK5vFwoj2A34+g7/wnvNQeoWW281dlrlmXIES4+ht/7CB9eD7vXk+blkkX3rUr88Q4n48TL8Z/vTVttntRiXo+mzfVLjN17BcS6752dV5zxDiWTs9Xr5nO80tvfskKmJZNex8nHf6J9nKBHG29dOY5P8ofl+E0EURWD7/wDuOf8vEH64awAAAABJRU5ErkJggg==;" parent="1" vertex="1">
                        <mxGeometry x="350" y="287" width="50" height="49.2" as="geometry"/>
                    </mxCell>
                </UserObject>
                <mxCell id="8" value="" style="endArrow=classic;html=1;entryX=0;entryY=0.5;entryDx=0;entryDy=0;exitX=1;exitY=0.5;exitDx=0;exitDy=0;exitPerimeter=0;" parent="1" source="2" target="7" edge="1">
                    <mxGeometry width="50" height="50" relative="1" as="geometry">
                        <mxPoint x="70" y="312" as="sourcePoint"/>
                        <mxPoint x="390" y="282" as="targetPoint"/>
                    </mxGeometry>
                </mxCell>
                <mxCell id="9" value="uses" style="edgeLabel;html=1;align=center;verticalAlign=middle;resizable=0;points=[];" parent="8" vertex="1" connectable="0">
                    <mxGeometry x="-0.1188" y="2" relative="1" as="geometry">
                        <mxPoint as="offset"/>
                    </mxGeometry>
                </mxCell>
                <mxCell id="16" value="draw.io files" style="shape=image;verticalLabelPosition=bottom;labelBackgroundColor=default;verticalAlign=top;aspect=fixed;imageAspect=0;image=data:image/png,iVBORw0KGgoAAAANSUhEUgAAADgAAAA4CAMAAACfWMssAAAAgVBMVEXwhwXfbAz////eZgDwgwDssZXeaADeYwDwhQDgbgvvfgDvgAD1sXrttZjnl2zdYADvu6Hzn1X63cb23dL+9/LsgQf56eLcWwDrqYfkdAr00sL0rXTwihz0p2fynEzxjSfjgEL51r32u47jg0nyyLT3wpvhdi3mkWLkiFPfbxnpnnj0Pw/KAAABo0lEQVRIie2Xb3+CIBDHIQhYVmrz36xt1dqyvf8XuNMVCmiefLY92u+Ren39HccBRpJYkclScUJiPp0jhMfEw6/x9MN+Xop3NCErTrZLre0OXT7+PDO0xZJ8ZinFcerFBtcBDowdkKE8exwFxZC9IEVMSj+IIAdA6g2OkoPgGNkzHVdwhFSvNri/gQ/3ycXB5B5DSnFkcISfJxkogYu5pBRJNsvjLQ/DfF+PkFEsuQCjsskvPIF11/EuGbyDD/0uiIDLCEmqXWdgrICbD2GQT0OJbiA9XcgwM8p6h+T1/J+1h6jqW4YgF5ZFWHYTGCb50RqUuMCDlRwjlXLKKOfw6CIssnUKGtXtluQGyHJIvoR2AEmna4P4sGkEb8/KiLUGLCqzumEblWtpgnxp9nWmPWVmRgpmgHWT9cUp+7QC1wJr0F6C0Q1c2RH5D/4aSP8c1KlajaU3b3G2AlloONrnRdluHSczUlnnCE+LeauquwNUnUBB3WMkkEzLWLWCsZ5IZ/GndIqIL0l8SeJLEl+S+JLONzKSFO7HPIpkFXH/PiBIUSVfsC4eDH9KVwIAAAAASUVORK5CYII=;" parent="1" vertex="1">
                    <mxGeometry x="550" y="170" width="50" height="50" as="geometry"/>
                </mxCell>
                <mxCell id="22" value="Dockerfile(s)" style="shape=image;verticalLabelPosition=bottom;labelBackgroundColor=default;verticalAlign=top;aspect=fixed;imageAspect=0;image=data:image/jpeg,/9j/4AAQSkZJRgABAQAAAQABAAD/2wCEAAkGBwgHBgkIBwgKCgkLDRYPDQwMDRsUFRAWIB0iIiAdHx8kKDQsJCYxJx8fLT0tMTU3Ojo6Iys/RD84QzQ5OjcBCgoKDQwNGg8PGjclHyU3Nzc3Nzc3Nzc3Nzc3Nzc3Nzc3Nzc3Nzc3Nzc3Nzc3Nzc3Nzc3Nzc3Nzc3Nzc3Nzc3N//AABEIADIAOAMBEQACEQEDEQH/xAAbAAACAgMBAAAAAAAAAAAAAAAABgQHAgMFAf/EAC0QAAEDAwQABQMEAwAAAAAAAAECAwQABREGEiExExRBUXEiYZEyYoGxByNC/8QAGgEBAAMBAQEAAAAAAAAAAAAAAAEEBQMCBv/EACcRAAICAQQCAQMFAAAAAAAAAAABAhEDBBIhMROhBUFR0WGRseHw/9oADAMBAAIRAxEAPwC8aAKAKA1OSGG3A2482hZ6SpYBP8UBtoAoAoAoDwkAZPQoBH1NrryMlhFlXBmtLbKlr3FW0546NWMWDfe7goanW+JrYt1ihcr25dtQRJ0tLCNi2UqLfCUpS5nJyT7mrSx+PHKKdmfLP5s8JyjXX8lvRbhDmR1vw5LUhpBIUppQUAQM44rOaa7N6MlJWnZx7BquHco26a4xCkZGG1vAbgeiM4z7fIrtmwSxSplXS6uGphuXHNDFXAthQChrDUdwtkdCmITrDan/AAi66lCg4NpP0gKyPXvHVWNPijkntl6Ket1E8GPdCu/r/RWTLcdDICfHztxt2gn+8VreNVfJ815eaTXv8AAwGVHD+4/8YTn85xUbOLp+iVkSlW5V9+fwde06kkWOA5HguqShxZcIU0kq3EAcEnHoK5T0sJvc79FnDr8uKPjg419+f96O3YNMplRokm4wLg428eGkFtKEN443ZO7n2HvVfNrJcwxul7L2m+Lx8ZcyuXf6fsWSlISkJSkJSBgADqs82T2gIF8tTF6trsGTkJXylY7QodEV6hNwluj2c8uOOWDhLpiRI0gIjDiUMSvMgf630kuoz8JGfyOPvVxauUnU+UZkvjIQV4lUvoxab03f33NjVrkd43KTsH5Virz1mFLsyY/Faluto26a/wAfhh5Eu+rQ6pJymMjlOf3H1+OvmqOfWPItseEa+j+Ljhank5fofqomsFAYurDba3CCQlJJA74oBGnTb1MtNmuj8mGIk2bDc8sy2oLbQp1CkgL3fUcd8D1r1xZzdtJk2JfLuYFtvb7kJUCe6ykRG2z4jaXVBKCF7vqUNwyMD1x1Sl0TbqzDzl2uulJl3ckxm4cq3vONxUMne2koO3Lm79XvxTp0LbVmmPqO4Gz295cm3xG5qVONvuZcTHYbQM7jkBThPpwBz3jlQt0Sol5vkmJCj+Gw1KmvOBmS8wpILCU58QtbshR6CSr7nHVKQTY1thQbSHFBSwBuUBgE++PSvJ7MqA5EXTVoiTUy2Im11CittJcWW21HsoQTtSeTyAOzU2yNqCPpq0R5wmMxNrqVlxCS4stoWe1JQTtSeTyAO6WxtR4NMWhL0hxEZafMJWlxtL7gbO8YWQgK2gnJ5AzS2RtQP6Ysz8V2M5BR4LjoeKUqUnDgGN6cH6VcdjGfWlsnaiVGtMKMIvhNKzF3+CpbqlEbv1ZJJJz981FiidQkKAKAKAKAKAKAKA//2Q==;" parent="1" vertex="1">
                    <mxGeometry x="440" y="489.99999999999994" width="80" height="71.43" as="geometry"/>
                </mxCell>
                <mxCell id="37" value="code" style="shape=image;verticalLabelPosition=bottom;labelBackgroundColor=default;verticalAlign=top;aspect=fixed;imageAspect=0;image=data:image/svg+xml,PHN2ZyB4bWxucz0iaHR0cDovL3d3dy53My5vcmcvMjAwMC9zdmciIHdpZHRoPSIxNDQiIGhlaWdodD0iMTQ0IiB2aWV3Qm94PSIwIDAgMTQ0IDE0NCI+PHBhdGggZD0ibTcxLjA1IDIzLjY4Yy0yNi4wNiAwLTQ3LjI3IDIxLjIyLTQ3LjI3IDQ3LjI3czIxLjIyIDQ3LjI3IDQ3LjI3IDQ3LjI3IDQ3LjI3LTIxLjIyIDQ3LjI3LTQ3LjI3LTIxLjIyLTQ3LjI3LTQ3LjI3LTQ3LjI3em0tLjA3IDQuMmEzLjEgMy4xMSAwIDAgMSAzLjAyIDMuMTEgMy4xMSAzLjExIDAgMCAxIC02LjIyIDAgMy4xMSAzLjExIDAgMCAxIDMuMi0zLjExem03LjEyIDUuMTJhMzguMjcgMzguMjcgMCAwIDEgMjYuMiAxOC42NmwtMy42NyA4LjI4Yy0uNjMgMS40My4wMiAzLjExIDEuNDQgMy43NWw3LjA2IDMuMTNhMzguMjcgMzguMjcgMCAwIDEgLjA4IDYuNjRoLTMuOTNjLS4zOSAwLS41NS4yNi0uNTUuNjR2MS44YzAgNC4yNC0yLjM5IDUuMTctNC40OSA1LjQtMiAuMjMtNC4yMS0uODQtNC40OS0yLjA2LTEuMTgtNi42My0zLjE0LTguMDQtNi4yNC0xMC40OSAzLjg1LTIuNDQgNy44NS02LjA1IDcuODUtMTAuODcgMC01LjIxLTMuNTctOC40OS02LTEwLjEtMy40Mi0yLjI1LTcuMi0yLjctOC4yMi0yLjdoLTQwLjZhMzguMjcgMzguMjcgMCAwIDEgMjEuNDEtMTIuMDhsNC43OSA1LjAyYzEuMDggMS4xMyAyLjg3IDEuMTggNCAuMDl6bS00NC4yIDIzLjAyYTMuMTEgMy4xMSAwIDAgMSAzLjAyIDMuMTEgMy4xMSAzLjExIDAgMCAxIC02LjIyIDAgMy4xMSAzLjExIDAgMCAxIDMuMi0zLjExem03NC4xNS4xNGEzLjExIDMuMTEgMCAwIDEgMy4wMiAzLjExIDMuMTEgMy4xMSAwIDAgMSAtNi4yMiAwIDMuMTEgMy4xMSAwIDAgMSAzLjItMy4xMXptLTY4LjI5LjVoNS40MnYyNC40NGgtMTAuOTRhMzguMjcgMzguMjcgMCAwIDEgLTEuMjQtMTQuNjFsNi43LTIuOThjMS40My0uNjQgMi4wOC0yLjMxIDEuNDQtMy43NHptMjIuNjIuMjZoMTIuOTFjLjY3IDAgNC43MS43NyA0LjcxIDMuOCAwIDIuNTEtMy4xIDMuNDEtNS42NSAzLjQxaC0xMS45OHptMCAxNy41Nmg5Ljg5Yy45IDAgNC44My4yNiA2LjA4IDUuMjguMzkgMS41NCAxLjI2IDYuNTYgMS44NSA4LjE3LjU5IDEuOCAyLjk4IDUuNCA1LjUzIDUuNGgxNi4xNGEzOC4yNyAzOC4yNyAwIDAgMSAtMy41NCA0LjFsLTYuNTctMS40MWMtMS41My0uMzMtMy4wNC42NS0zLjM3IDIuMThsLTEuNTYgNy4yOGEzOC4yNyAzOC4yNyAwIDAgMSAtMzEuOTEtLjE1bC0xLjU2LTcuMjhjLS4zMy0xLjUzLTEuODMtMi41MS0zLjM2LTIuMThsLTYuNDMgMS4zOGEzOC4yNyAzOC4yNyAwIDAgMSAtMy4zMi0zLjkyaDMxLjI3Yy4zNSAwIC41OS0uMDYuNTktLjM5di0xMS4wNmMwLS4zMi0uMjQtLjM5LS41OS0uMzloLTkuMTV6bS0xNC40MyAyNS4zM2EzLjExIDMuMTEgMCAwIDEgMy4wMiAzLjExIDMuMTEgMy4xMSAwIDAgMSAtNi4yMiAwIDMuMTEgMy4xMSAwIDAgMSAzLjItMy4xMXptNDYuMDUuMTRhMy4xMSAzLjExIDAgMCAxIDMuMDIgMy4xMSAzLjExIDMuMTEgMCAwIDEgLTYuMjIgMCAzLjExIDMuMTEgMCAwIDEgMy4yLTMuMTF6Ii8+PHBhdGggc3Ryb2tlLXdpZHRoPSIzIiBzdHJva2UtbGluZWpvaW49InJvdW5kIiBzdHJva2UtbGluZWNhcD0icm91bmQiIHN0cm9rZT0iIzAwMCIgZmlsbC1ydWxlPSJldmVub2RkIiBkPSJtMTE1LjY4IDcwLjk1YTQ0LjYzIDQ0LjYzIDAgMCAxIC00NC42MyA0NC42MyA0NC42MyA0NC42MyAwIDAgMSAtNDQuNjMtNDQuNjMgNDQuNjMgNDQuNjMgMCAwIDEgNDQuNjMtNDQuNjMgNDQuNjMgNDQuNjMgMCAwIDEgNDQuNjMgNDQuNjN6bS0uODQtNC4zMSA2Ljk2IDQuMzEtNi45NiA0LjMxIDUuOTggNS41OS03LjY2IDIuODcgNC43OCA2LjY1LTguMDkgMS4zMiAzLjQgNy40Ni04LjE5LS4yOSAxLjg4IDcuOTgtNy45OC0xLjg4LjI5IDguMTktNy40Ni0zLjQtMS4zMiA4LjA5LTYuNjUtNC43OC0yLjg3IDcuNjYtNS41OS01Ljk4LTQuMzEgNi45Ni00LjMxLTYuOTYtNS41OSA1Ljk4LTIuODctNy42Ni02LjY1IDQuNzgtMS4zMi04LjA5LTcuNDYgMy40LjI5LTguMTktNy45OCAxLjg4IDEuODgtNy45OC04LjE5LjI5IDMuNC03LjQ2LTguMDktMS4zMiA0Ljc4LTYuNjUtNy42Ni0yLjg3IDUuOTgtNS41OS02Ljk2LTQuMzEgNi45Ni00LjMxLTUuOTgtNS41OSA3LjY2LTIuODctNC43OC02LjY1IDguMDktMS4zMi0zLjQtNy40NiA4LjE5LjI5LTEuODgtNy45OCA3Ljk4IDEuODgtLjI5LTguMTkgNy40NiAzLjQgMS4zMi04LjA5IDYuNjUgNC43OCAyLjg3LTcuNjYgNS41OSA1Ljk4IDQuMzEtNi45NiA0LjMxIDYuOTYgNS41OS01Ljk4IDIuODcgNy42NiA2LjY1LTQuNzggMS4zMiA4LjA5IDcuNDYtMy40LS4yOSA4LjE5IDcuOTgtMS44OC0xLjg4IDcuOTggOC4xOS0uMjktMy40IDcuNDYgOC4wOSAxLjMyLTQuNzggNi42NSA3LjY2IDIuODd6Ii8+PC9zdmc+;" parent="1" vertex="1">
                    <mxGeometry x="340" y="510" width="70" height="70" as="geometry"/>
                </mxCell>
                <mxCell id="38" value="reStructuredText" style="shape=image;verticalLabelPosition=bottom;labelBackgroundColor=default;verticalAlign=top;aspect=fixed;imageAspect=0;image=data:image/svg+xml,PHN2ZyB4bWxucz0iaHR0cDovL3d3dy53My5vcmcvMjAwMC9zdmciIHZpZXdCb3g9IjAgMCAxMCA3Ij4KPHBhdGggZD0iTTguMTIgMy4yN2MuNDUtLjMyIDEuMDYtLjQ2IDEuNzgtLjczbC0uMzEtLjdjLTEuMjguMjMtMi40My0uNTMtMy42OC0uN0M0IC43NSAyLjI0IDEuOS4zNiAyLjA0di43NmMxLjg3LjQxIDMuNjQgMS4yNiA1LjYgMS4wMi0xLjIxIDEuMjEtMi44NCAyLjY0LTQuNjkgMi4wN0MuNjMgNS43Ny4zNSA0Ljg3Ljk2IDQuNmMuMjcgMS4wNCAxLjU3LjMgMS0uNTJDMS41NyAzLjYuNTQgMy44Mi4yNCA0LjNjLS44NyAxLjY1Ljg0IDIuNTYgMi4zMSAyLjMyIDEuODYtLjI1IDMuMjktMS43MSA0LjUzLTMuMDItLjAyLjYxLjE4IDEuOTYtLjQxIDIuNWwuMDEuOWMuNDMtLjM0LjgtMS4wNy45Mi0xLjU2LjE2LS42My4wNC0xLjAyLjEtMS41My4wNS0uMjMuMS0uNDEuNDItLjY0ek0xLjkgMi4zOWMuNzctLjIzIDEuNTgtLjU4IDIuMzktLjY2LS40MiAxLjM4IDEuODEgMS41NCAxLjU2IDAgLjY0LjE2IDEgLjMgMS45NC43LTIuMDYgMS4wMi00LjA1LjU2LTUuODktLjA0eiIvPgo8cGF0aCBkPSJNLjM2IDEuODF2LS44Yy4yMyAwIC44NC0uMTggMS40NC0uMzVDMi44LjM2IDQuMDUgMCA0Ljk1IDBjMSAwIDIuMDUuMzQgMi44Mi41OGwuOTEuMjVjLjYyLjA3Ljk4LS4wOC45OC0uMDhsLjM0LjczYy0uMDYuMDItLjU2LjI0LTEuNDEuMTUtLjI3LS4wMy0uNjItLjE0LTEuMDYtLjI5QzYuNzcgMS4xIDUuODIuOCA0Ljk1LjhjLS43OSAwLTEuOTcuMzUtMi45Mi42My0uNzQuMjEtMS4zMi4zOC0xLjY3LjM4eiIvPgo8L3N2Zz4=;" parent="1" vertex="1">
                    <mxGeometry x="450" y="77.21" width="60" height="42" as="geometry"/>
                </mxCell>
                <mxCell id="39" value="workflows" style="shape=image;verticalLabelPosition=bottom;labelBackgroundColor=default;verticalAlign=top;aspect=fixed;imageAspect=0;image=data:image/png,iVBORw0KGgoAAAANSUhEUgAAAMwAAADACAMAAAB/Pny7AAAAaVBMVEX///8XFRUAAAD6+vr19fUUEhIPDQ2lpaUqKioFAAAMCQnu7u7y8vLT09Pb29sIBQV8e3vi4uKsrKzo6OjLy8txcXFGRUWNjY22tbVRUFA8Ozuampq+vr4mJSVdXFwyMjJmZWUdHByEg4Mg1T6LAAAJz0lEQVR4nO1d67ayKhT9XAomXjOveUl9/4c8WntXGhAh2B5nOH82GuKExWJd8d+/HTt27NixY8eOHTt27NixY8eOHb8wLc91j0ldxFcUdXJ0Xc8yzW+/2IfwTkFS5OkZXnDp8jgJTt6331AQ3shjKPvpzR1kLICc6XejHIok+POE3CTOy+l9yQuPJ+DpH+W4RKdvvy8bXmJHk2TxeDww/vGc2snfXJ+jnWYAoRiTm8yFVz7Bt9/8BX40bpNPmPzwIdCXafLtt58h6S7g4E+Z3Nfn0v0dOn5pgCSTG7CDyr9BJ2hFtzxveUbt9v29cxoUULkCID1+lYpbNIqoXOmg+HsHj+l3ECqjMoJAm3zJcjvZBqikMgGc6iuy5qdAVHOZFucLatqKM4W75QkIzvbGJo47NMpF7BfQR+6WXI4lXnVK8oHxlmfOsdcjYr9AQPytuNRqFTINBOJtuBR6l+UGBPYGVMxqCy4jINd+fnoV2oaLgXCuWUVbVa9Rjc2BkV42ln3QcOqzQJpKIxszPmjXY3M2tqWNTH1xtuRiGOGh0KUFAn0mDAtOo+n0dC+bcxkVdKPFXzPLL3AZ2Zx1CNpA44IxVnXuIISp1iuk6rnUNC7kcrk0yJENmT2AHcD9+DAqm0I1F5cWGQvPdVLHeVo2q0I0yJnCmrk9PowmyggUe9JWR1uYX9P2WORlKBsHRNeEQHDbGQl1mFbt2Um1yBA8BgniFMnQGal09pP6pT1jtNJUcvHPtJMfsuf/nOoUf6zvwOmKmRBRJSC8KAxyWBHVioFq/je3bpcBG0ScpxzgMgOFISsWx0hMnQ9I1UUFYoMqQPByOrtxf3+Z2/v356zt0hFdm52b22+/lIBU7vIQcalkEFbmqh1buvgAxQp0u3FxwumVs6hKgqPrWXd4U97WjrIbIwTl6fU8NOkbT11YvaJzIT31bE4ADulSeubw6ildSD0+TNbEVWoMAfrunzQm/fmmkDXl0tWtSTU0Jm9AiQ6wGAtjQKTDamKOpsTt9FkOmZ6IA12dTUKtYGmsnHV46CFTMIeL1nudx57l9W9MBpPVCs1kybAuMjZ7vGHteC5zYTZWAOPShGudTtZ+NNiqeRVYqvk64FozgGMJY9BBhuOcY1j37CPPDtZChuflwTrtzDAufp5dK2LwhIA7YLnm0dx50hJqYJ5qE569wc/BVPpXOCtlmIYzd8RVKoArZWjpnKmATXi+t7NCzixq6Oc+TZE6Dg9wc1n4IO9xFj1PtbRaAqdexJEGZMinOumu/w0EaaqkCDIOm1Ba51glhwxUulInvARwWMrqM//MTpNBpi1Tf0o5RsBZVh5szpbRmacv2LFrhGQ1KGeGtBYhuryBJTcNPb58myAdR8wDscEUCejklHNQMjOYRFp0144cSopEfWH7Zam+LPAE9lmDD3LZGvb+R6HSsPxHQxty5lnO1Pf4osH4f4afsYVCah45DmxYaq4KtdgWrlxYg6MgtXj/M0RMDQCpjEkYsGcn1GIvPyPHLBGHVkad+Uz9qDgtRwNbAziljB2VMC0z1Guv0qsPLIuGnGWUT9Gwnoca5Zn5JXymW4h7mcFjZg8cOmjWzDwyyJExcdlB36+SkQtqcMg0/ysyX9wzysn02iuokw3JbKCa2R6NYjKGVtdsQtFsRka/BVBxfE21ZL5qmykn43TarWZOkEuGDNsCMBzF1WwvMDumC4CIjCpl22YGyTR3HrnsiAaWOuQSRsmMsYXbzI6lhlKBIbY/M6ozzbo5ZkuFnD/D8TQ1pWYe4CQD5TxNbpC009qEbHHjszIhTV55AdG7aZKMnUuRLDrhrPX3Ys2ScbN/Nu+ROuWMlwmUjWhyYs2jJ65RzjiHgrSAB9wsYK4vdM4ubJLPAnjs/Mx0dmlLAwa8Rh3oJC0pXhJb39KYNrcWSPaE4+U0DXLQtDQBZ8escHJ52WZtCSeTWwpEpKXbYltn0yTpSTjXbLfMmCwz6RlMuW2ZmGjI0ngGt63Vka8K49bOTPfEKGTxA377JJIKNN/gcquaprZDhTSueNM+iS8r+mi4m2ZiIy/CNJi8k23CmnqzN5WAE5tW4UUk7jsu67ocLfSmJw5B6SuK1Jh++64/EqNVgvB2rsZ9YytZHDfm1Zn9jNWtGsJ/39/noEhB7UkSCVz89Nrk9hkOcxVw7SZbjIrhPKwcxR8ygSZP57BulEVcEy6DbU8XZc7tnBCyNXSSkYrIDRCrewFc9PTe0AWWaVpukPeL1QmdSyu3d052exG7lIegtZtzZvfB/Uao4/I+MIQddGjtDw2cY1U2WLRnXUG/zulJX6KnBsOiX04nut7C2lb+SycpBaab3O515dqVs8fD+rDDrOcMQX5f6prqIKCrgsha3h1lnt1m+LmVVnBhFFgbQfP80lDeb+1jBzwIHLja2r983qBOGhXB+kU7IID9y4ZZgPy2XI8X+GFAkZu+6KDFj/JsRswTwfBmYDP/9JpaR1EAZXlv1iOc6dEv1REoR/Wzz67jQY6i3uaXfABGvw4z9ZYIoQjK8NnSyMX+qbAXV2eF99p5WvRBKLfFqVqgACusPHgJB95bNGkuCMlETmpeuPQF0qE/GpZBp0fR1/HV0RVrc+OkYF6nR234dFho4UfZ5+nFsIFB5Imx+E1Cgk8Ux2IBnoJmpn1wwh+jBCEcglicPuFHfmYzt6qjkYJjM59/GB4bI0izhlwdnbC/lJGY3nHZ1TELkEZ5fC6eC9r8GohTnKdd16VDJex0WsyS0gW0RE4Xx/3SvDDNzz6SYYqSUb1hrliUtJOVd8KZguYZtFri84sk0Erdb4qdmtpaqJLZnYArFaYYGVBzQwsNhfEsGuvYCIkZMTSWttozpwqtaTsXIYP13qZbzV1EkM8Fmu/vSsV6SycmM3nGxoE0kHM03pPBksUYHyAPZy+BANri6Hq3Q8Y0PfcktlhvyRDdjW0TcrI0LIFkURXXdV3Y1VAekNBSvSNDyAZcJi2wdEXw7BtTBxVkwk1u0h5hc++gJSrIQLMRl3//al4qRQUZyLT3gTzgd+xopDAZdms5dJvdpD/hFDE/pLGaDIFo4y+3mDFiiBoWI8P0ZwDF23+2JWB8GWQdGQS6C8AZyKlfoVhDBkG/yelCQ5Lh1+gXPgh5UzQyIc6++FEtM89eFIE0GQKZ/o80cOFH50WuRZIMhnO0qUKmwayjZkZHigyGJqr/wldD3TrCT5pAggwCHNWbfg2IAzcZ4G594kaMzL0RgwAMyV+hMsELquanckM0mPoT6wFoqj/30VPTLW53F4ter368/TsrRDLtX8CpKjPxL2G5UVZWf/jDrTt27NixY8eOHTt27NixY8eOv4r/AGS5jKsfz6j5AAAAAElFTkSuQmCC;" parent="1" vertex="1">
                    <mxGeometry x="580" y="278.96" width="70.22" height="66.08" as="geometry"/>
                </mxCell>
                <mxCell id="46" value="build scripts" style="shape=image;verticalLabelPosition=bottom;labelBackgroundColor=default;verticalAlign=top;aspect=fixed;imageAspect=0;image=data:image/png,iVBORw0KGgoAAAANSUhEUgAAALYAAADHCAYAAAC0jqlgAAAABGdBTUEAALGPC/xhBQAAACBjSFJNAAB6JgAAgIQAAPoAAACA6AAAdTAAAOpgAAA6mAAAF3CculE8AAAABmJLR0QA/wD/AP+gvaeTAAAdwklEQVR42u2de3wU5dXHf+eZ2d1kNwkSCTUo9dJKhWirxeKlaqHaChS1tkK11L61WhH70Qpqa6+uFS0C6kervi+2tm/b17Yf06u1oFWbcAloBW2RgIqtiJKACEJIQnZ35jnvH2SXTfY2s5fZ2dnnfCCZ7M7O2Z3nO2fP78zMcwjKMtrEpet8o/e+8z6TtfdDYgwJOhImmkGykcEjiWkkg0cCOIwl6yDUH3wl1zCjdnAZYOwDIAEGM2IE9EjwPjD2AtzDQA8Yu8H8NoPegZDbpcE7zaj2dseii/arkbBvpHYBcOFdq+sjNHCyAMYzyw8BdAIYHwL4GDA0BicYBTj+K/5jcJET2+PEMsf/IWnh4BYSq3PSS+PrH9oWmHcx8DqALSR5CwS9DhMbm7YYm1tbZ5lq9BTYCbtgSdsJpikng3A2M58K4IMARFbIkqFOAjkz1AcftwV1YlM87PVp/fUBeI5ZPiUFHu9YMOtVhXOVgT1x6TrfmH37pkiizzL4QjCOLDJkWaBOXieXjwwHkjUfLxDokdgA/3LtvbMOKLC9HJkXPv1+qfvmgOUVDDTDFsgFQZYG/DQpjCV/yetb8AfeBUn3mFHcV82AexLsi+5eMdaA+X2w+C+w9JcRsjQpSJH9ZcjjAbwtpZy3ZtFlv1NgV7iFwyxeCLVfD8LtAOrcAln6lMeOv6T10+qAbP7wexkVV6+9d9YeBXYF2md+tGok+YxHGZjmXsiKKU5t+dsqhLxk9cLZ6xXYFWQXP/DM4UZEa5OMkyoAskxlvVJXXHqZ+JK1d81+qhrAFpX+AabdvywQi+jLigY18inrwX5ZL/lD5AE1hm4Ow4VxygqMOkg8/vGbH52uwK4A02KhJcw8qcIgG7acblvZl9OK4dwVHr9ktJ5506/PUKmIi+3Cu1ecYjKvA1hkHXRvlvUKEcM7NKFN7Fh0WZeK2C40yfKOnFAjH6hhD+rhXgqCGpkrLshZAbHq7whTGo+oVMSN0fqetg8y6Hy7kDH4nwS6llkeTyGjpiFQH2TGeIDnMfBKGSBL3V66g9JWioXsYvjgk1NPv/FXs1Uq4rby3pK/fwegO2wMegTgb5w+sOYn4XBYptvm5HCb7vNH5hPznQxoGdOZiqi4JB9UGfxJfrvR2PvB5T++PuI1sPXKPSRp6mAItjLoUWI5ffm3z//7k1k22R6eYgBYdN6dy18nya3xb7TCoUYZKi6ZoU4sE47a4zvsKgAPqlTEBTY53KYDPNHqoBNw0/Jvn/93q9t/5jvT/gBggaOQ5VwuXsVl6GeS16oc2yVWW2eOg0TQImSv1B333kN2ffQGexeCebuzkFmI5kUXwzTh1Hm/mKTAdkMWIrXjrELGzD9tnWX/gvy182cdAPBLZyHLVXHh4lVcklIiQXK6AtsdkvdIq5CRLp7O1w1D/s1pyJypuAzTDZLOVWC7wJhQZxUy6otuzX/n8JuOQ1bssp61isuHASYFdtnJ5qBVyA6gVhaQ8xhlgKwcFZeGiTf83xEK7HJnIsxBq5D5/dGj8vVjQB9bOWU92KyyDPVNMnK4AtsFEdsyZAJT8t45kj+Zb1mvEMjyq7jkeY3L4E8hfPUK7HJzLVhYhYwkfwVsP3+cHG7TmXF5vmW9wi6kKmHFJYM4NUjqCuxym7QF2aRPLXzyUrsudOqbC2Cco5A5UXHJlPIYqirilrhtedBJ0tKpdyz/sNUtn7fgL2cxeHHZICtbxUWB7ZJU2/Kg10vQik/f/tSMXNs894dPfIlNPAUg4MGyXlVADVTwRVD2IePDQPIvn16w/EkGHo4ZNU+3h6f0AsB5C58ewZGBqSB8Hcxne7isl9Gf12biqEywZdI42ISMwVOZeaqu9eO825/YDYbG0chhILi2rIcilvUybldFbBfl2IVDdrh7ISvyrWs57/LxlnoUFQu1pyErXVkvq25QYLslYHsYspJXXNizUFc02J6GrAwVFwW2S7SjlyHLv+KCIlRcFNguSLO9Dlnxpz3LqiEU2C6C2quQlUgMZ/w2UmC7IxnxNGRlmbxHge2iyO1VyGzOyV0EMew10yuTZ94N4D9pIQMfuslJ2oEMAOjgLYBxeZo86DJ5S1YgkwCTD8BYd1RcsusG8tjVfaodXgntnJt/d7ypGa/ZniHKiVZ7w3QKSTrnxf/+2iqViiizYJH8pj1DKW8lyyyGVY6tzHYZxy5kdsVwUebkVmArswN1XpDZFMOF3uVjIKbAVpZP8aZCKi6qKpLbPn33irG6ND8KiXFMPJbAR4ARBCOQVDtI/Ez9NuXUL24ph0QsmWPQ5dAfKZUOTkkK4j8G3xln8D08sUjJcyUkKOi2sl72isuwz7bjpksBvrJADHoB7gfEGyD5CqCtpfct/ndFgT3t/mUBLRKcziRngDGVpTkmPt0pJSNEwyML2YhklDuSJQ06ZYtklBsySoaMyEZFggarje4q66U9SDKjfQyA84pTfOPByaYkeMeNbwB4FKCf0RFL3nAt2NOXPHs0IOZRlC5nyMaUicfh/hMUZYGsJNe45NcFzeHk7FgA3wPLW7hr3i9g4lYae+9214A9fVHbEaRhARhfBuCLf30ryCxC5kRZj10HdfK+1kF8JXS+hLuv/wY13/+L8opHZrrg7vbrhYbXwLjyINQKsopstedodYgHfQ/7zxgBxv9y1/VLma/2lQXsixd3jJ5xz8rlDNzHjHoFWWnLeiXtguZ0yTP5rGniDQ+B/Gp0+3/LHNYdBfszi9tOjIrY8wCfryCr8FZ7jqYeaSJ14rHhoONz6Nr1sGNgz7i3/QwS1EHAMQqyiunnaKMCUsrUIwXeNOnIEPiv4K5rv1FysGfcs3ISJJ4E0KAgq7B+jmURi4PvN20+nfx3ipg89JzkJdw1d2LJwL7wrtVjwPKPcag9BxmXFzKnW+05LxCHgz4s504vJgGwDil/yjxTKzrY0+5fFpC68QSAMZ6FDOWDrNSt9pyH2pJAHPbYcNCT0xScjLcOu7zoYItYaAGAUxRkJYDMU2U92wIxR4qSBDpRmLdcFyga2Bfc3XY6gecryEojhh2d+N2dAjFNlE6bzhyNmoFrigM2MzHoPgBCQVbp/RxdLBAzvZZTUplv2a1tpwX7gntXXgZgkvsg4wqHzAtlPTsCkXMJxCz5+RA/zXhr2/TCwGYmZv62OyFDBUPGjk/eU36BCAsCMRP8KX6uLAjsGfesnAbmExVkqqznmEBMd5Ck+pnO2746poCILb+mIHO3GHa2AuKIQLTiRweMS/MC+/x7nmxkYJqCLH8xbH05f52S9TOVhGsnBKIFP0zT8gJbNwMXA4O3bSnI8hLDXKllPaFF03x7+0sjEC0eJKl+zuFXvlpvG2wQpirISiCG4f6yns5GT+qjVF8agZi3EPUjED3XFtgzH3tMA3Cugqwy+zkWaoYUu1O55hEOC8Tcfogslf0SRe8Db406EcwjFWSV18+xCLZvw//MfSflUWkem7gRN2sunQFeO+sOvUYky2vlOfZSEeYzFGSV18+xSLYxw+MnOC4Qc/sZx69eNsoy2JLpDAVZecVwanrnVFmPV6Q88ta8RgBHlkEg5vJD0MXpdsTj6QqyTGLYAmROt9orbknv6dQk1fjkwYlAsglEzkMgch5CdNh6ZJ5hCewLlrSNAvj4qoLMlhh2Wau9ohp1Hb/78NTpg5nOzS0QLVQ3OA28toVoip8zLYEdkzwJg5MeVQ1kTohhB6YhK0K4/kVr6yxzyCMc1gF5UYnOIBbjTOXHuG2ynhNswfiIgswJMcyuulqPgQHNpB+nPLF99/lgbi6jQMzlJ4SjmsblBJsILQqyqijrDR/8h9Y/PKc7NTsxryqzQMzth3BSzjo2gz9c3rJetTcNLcPVeoSdwqAfpkTx7q+3QPKFQ6HKVa9OJxBz5dLp4LXhR3BL1oN24tJ1PgaP80ZZD2WouDjQaq8UWQhhzvqH5+xL88ytAAtb1Q3LAtHGTb25/DBnj9ij3usZB0LAG2U9D/ZzLA3W9//zwWv+nPJw19yzIeUlzpxBLPhM5YlZIzYRPlCxJyhKBlk5ynoOdRcgLDvsiB03pUDdOdMPiaWJ2nX5BWIuP8dx1wXBLPpBHlUuyAo6QeF07bjiy3oAwM/IYHBWezic2tVxRNOdAI93lUDM7kegVz86B9gKMi+X9QaT6t/26rEZG5Z8uS/lubfnfgaQ8x0/g1ioH+CojDm2IDFWSlaQebesFwXhm/96aM59aYHfds2JAP8K8X7GhVQ3cp6YKVIVJVHyk2Mzgi0lH6UgK1HFBeUu6/EKQXLuiw99fXPaZ7uvOQamfAqgkfaEWwHwFlWIUuaITcSjmBVk+VRcXDsNGWEtTCz459K5yzIi/+bc42DKvwE0xjJUlqNqgfBa95M5YvPB9nQKsjzEsMumIesEsNzU6JcvPzDn5axx/K2rTwPxXwA0Wb+gySK8hZ6EsefniMxnHpmDSU3fnKkduwOy/WC8QkxdTNzLkoeIKplouyeHPJp4ePDP5J6RNBguD/4ph6woD0XTwfW5gICMXgn0EugdAr0ai9HLG3/6tZ2WkpO351wN4H6wDLjiDGIhfphCmcEGBV19gqJ4FZddYCwnxjMArVx79+w3UUXGb11zJMAPArioogRitnVJZgabwcEyQOZUP0dm8F9B9Eh07/6/rn94TgxVZvzGV2rgC1wLcBjgevcJxEL8IFvEBnmwaSgT0+8M5gXPL5m9AVVo/M61dYiYV4DwLQBHWobKfQIxm58sYDMGAA55qGnoawy6ds3iy56tyugcCJ4DKb+IqPw8CHUlFG5OCcRsfmqzRGzuZyDkgaahDGBRZO/+79tNOXjLdQH4Q0H3ILov+9M61UFQA0w0AHIcSIwH80cBeRakrHXdJaal8xPLkmNjwLGyXun6Ob5HLL/UsXj2spwQ75x3HECfAtMnAEwAcAKAAFCO9DvTgPlzD7bkQxUWls4LN3f4OZA5YhMG4qUn69eDOFc7tjAnd7cgmrZ60ex/ZcSnM+xHY+9sEF8Fzn0jaHmhLgFUFS0Qs67bnxlsybsBHG+/xOeKid+3SoEpaxZeujUtOgzCzvlXAPt/AOBoF2XDNqOaA1CVwo8dMZmPH8KBbDn2doAqsWnoLoIx9bmFl6eHetf8cdhBj4BwlquALsVg51WhyOO1pRCIhfhhzhKxibazLEdZr6B+jgMETO9YdPmrafHpnj8TJj0CQr27onSawS6FcKsePzsyi0dJ2yutaSgT37Dmri+uS4vPjhuvA3AfMOQ6AZdH6RyDXQrh5gk/9GbmwhHkdi51Wa+Yt5IR/X7tXZctTQ/1/O8CWFAZqUcFCES3+yG8lTliC2yFdL6sl9cMUYQeYr4+PdQ3XQnw7UogVpEfaWaO2LFopNOn+fOpHRdU1sun1R6z/MGaxbO7UhDqmncqwA+5I/1wk0D0vJ9tmUZBtIcv3sugLruQleFqve5AKLo0FepwEEL89uBZDZcIREfv4EYefuAFPxFw02tZyn0AwBvBPMalZb24UFjYHr5iIPXQ7PkeQB9QArHa/Mh/UUtrNGPEHnxFZ0nKeii4rBdfo4/Q//PUaH3j0QDd6G6BaHHmo/y61Vazn3XZRkUfXG+jq/s5SvyuY8mV+1PevYabweVMQZRALJ8feiEn2CzNdRDCvS0sNP5NClK7r2tAjK8oj15Uwq3sfih7xBYAcDZe2ghGj/WynqP9HAcQ9a1Meecx/6yDt7VVg0D0mp+ChegOjG/vzAl2OByWDLzg0n6Oa9beOyv1Yhemzzsfpa1O8YU8pviyONie8MN5+BnyHpcTZZ82K6kdHta6sZ8jg15KQYyv9oH4LGehVsLNNX6AnNfd60lDt5Zc2M+RmFNnMeoecRKErFMCsSr9xDBQ87RlsIU/9jxHdT7IUiFlveLOEEUw30j9nuETlECsWj8ddOoz+3KNXiIVefY7n9tN4PVum/jdZC3Nh+BjlECsUj/Mj1kZQTFsOP9azrJeulZ7zEZq/Zq4ofwC0VXdasvkx2khihj8/lbbYJNJf3VdP0dBsTQVkWBpoLYjdJCHoPKaHyeFKADgSfpQ+7u2wT5be3E9gB1u7Oc4nOySCMSME5NnyxUzfYXCRrda5Se7n8Sfj1od0SFgD9az/1S6id/zq7g4U5u2OAju7VbrQT9DbC8iA3/JC2wAICkeSKbLqbJeWaBWws3FflLI/Bmdur4/b7Dbbr+wE4yVrpn4XQnEKvOTYdA0LLUzyiJ9BssPuq2fY+kEoguaBBXVTyUL3oz2FI1f/VrBYPfu2PUnAFtd08+xpAIReQgdC4NdNj8VLhDTU/pju6OdFuz1D8+JQfIP8i7rITvItlrtKYFYTQIxnT2P8R3LiwI2AKzwvfwogBfK3c9RCcRqEohp8+Jbcl3JZwtshMNSSr4K8WlIyzrxuxKIVSAQ043jE3TS6vZ8CBDZnlx15yUb6GCLhzL2c1QC0Vt+LNsAWH4zXwpErhVW+DoXMnhZyct6mXLsgTyitGXhZuOULyycWi6qHy8KXjtGYTrpuc0lAxvhsJSxwKUAv+hEWS+/HNvqpZJZFL1lQeWUn6oSiMOH8xlsal5SiLoSVlbqWHTRfj+M6QxssNXP0W5ZL1+olXCrbIE41DZByC/QrFaz5GADwLN3fnEnODYZTO2Z4C3NDFFKIHpbIA6x16DjU9Sydk+hRV5hZ+XVC2e/p9c0fQrAXQyYjvRzzMq2Em4VLhCH1Cqgxc6kEzq6inH2Qth9QXt4irF64RdugeTTAbxQ3LJeenGaFmhPCEQvCl7bFgHz97DL90ka/4/dxTotp+f7wo5Fl60D+LSP3/zraSAxH8AUMESx748EItkFo+ubBMHC13c24VYpfuwWPXAAwK8B+iGd2LENRTa9sJcTdyzGMgDLzpj32JHkMy4CYzIYkwAey4fmBrRQAUlfcaGCKiFFGmzlp/AoTTABbAPQAfCzOBD5I526fh9KZHqxNrT23lnbATw0+B/TrlsW2B14dwyx1siCg4JlgJJ0borkpTjCMjFrGRmA5huRps+IrJQustshza9k3msyDQB0aA+Z6Qk5+N9I85SZfvXEgpnmZZRpRA4+R0j1RykLmVLGCEj0gWJ7IPd3UUtnFA6ZXqoNL//x9AiANwb/F9nk4E51fRfZfvrAY89AmeOmV+5br5QussoU2HbBdn0XWWUK7Lyhzgdep4QbKcIU2DZTbFvTzpZUIGbxwyP49ZlXpxeKZnYxKS2sAwCmaUGYZlknsRo9Ti3tOxTYbsmxyy8Qsz0+GsRLM+bdOf0gtx8iC5+HLHwesRmAArv8IdtNAtEDftKVDxXYZeCaLAy2IwLRI348JgcqOGIXabBLMQe0HdFaUj92Ba8Cu/Jy7EKqG64QoqX0o6oi7onYKTc4ZBjsUghEp/w4IngV2C6N2lXerVadEfUS2CUWVE4J0bIJXiiwXQ23akakorTnwK6qZkTFELxQYLsfaukdgWjfTxSMNgisgcQ7gAwBGA/gMwAfUc1R2htVkfj12NUgEA/5eQQwvk8tq7pTv8Bmaujc8VUQ3wGgqdqvMKyOHLvyBaIB0Fdpwt9/lWlvELWaAH7Cm09/Gqa+bDCKV62JyuW6ipoRsZyfDeohgI9/bis0YzqAdxXYFZmKVM1c089jwooH7OwdGv/cVoC/o8Cu6HTEBlRln0oM9v0QFuQzPzR2+X8OoNvG4cAK7PLz3O/+LrI5Zliy5qcPNcjrZmCa0m4g0WnZyguo30tgV2q5r2dI1PaGQEx9LeHfdGz7QAF7qtP6PjV6FNhlN3pjyKWrXj2DyNhb4H7aY6nsRzCxD9sV2GXXjrITAtUwldioAitHoy3dQMD8Hzpz7QGVY5fbjo1sBPPuKphr+oO85bSG/AM2f9TiimtVVcQNiQi1mmB+MjXa5TMHdLEFYlH9+BHVL8grWK+bGARomkUxvkyB7Zp3zj8rThfZDK/N2kWWnfPD9F1um2w/ZQzU3ADgMAtRYh9k6AkFtlvs6N+0gXlDWqg81a2Wx2N07Ee2ovWGsyZC4HsW8/Cf00f+1qfAdk06AobgW6qiGRHjJu4881bm3FKQO8+YBMFPgFFrYTfuB/nugget4m+653/P+gOAi6tjrml+FkL7Jk1Y9WLKMy9NPgz+2M1gzAdQY3HvfYtOXLNIge1GsLfMbILAvwButg1Vxd4pTptBvAbM3SDRAPB4MD4BwG9jI6uwacyUQrtzKbBLCfd/Zk4CczvAtZV5Kavjw/42DPN0OnntdnjUhCeOzuNa/wFgFpgjlSkQHbU9kOZ0L0PtmYidiNyvf3YaSLSCZchzzYiKYzvB4tN00qoN8Lh5bgJn3nLhKYD4M8BjK1MglsxeguCLacKaN1EFJjx3pB7/+Esw6BQw/9Ej3WoLPtYBPIge+fFqgdqTEXtY9J4JKReDcHRVTiXG2AghbqCWVc+iykx4+qg9/vFWBGvHg/gWAL3WBSLyEIiugvpdMN2Ad32nVCPUno/YQ4LXqzOOBJnXAbgazCM9KhC3AfQQSH+QWtp7UcVWdd1/uHNyHUTgKyBcB/A4DwhEBtAGpgewuflxr55wUWDbgvz8FgieCcaXQPIDOeF111zTm8DUCk08ShNWblEoK7BTAWcQNp93GghTwea5AJ0GsM9lAnEnCO2QaIegZdSyepsaOQW2/XSF6BywPBeEj4FxCsB1DkO9DcA6ENoAtGFCx6a8pmFQYCvLEtEFXp48DpqcCPDJYIwD5DEAjgHQUMCmDRB2QuItEDaCeANMbQPAG+jDq99Te16BXT7oN086HBw4GuBGSDkChHqA6sAUSjoy9kGQBGMAxHsh0QUfurBhzE4l9pQpU6ZMmTJlypQpU6ZMmTJlypQpU6ZMmTJlypQpU6ZMmTJlypQpU6ZMWYqpq/ss7CNmxm233ZbYV52dnQQAM2fOxKZNmwrehxMmTODW1lYAQEtLS+Ka63A4rJqiK7Dz+/zhcJjisLa0tCT2R3NzMwFAd3c3AUBjYyMBwJ49e9Lus4aGBtv7sqenJwXYxsbGxGN79uzhwffCg++Fkw+E+EEweAAo+KsQbAqHw5QMbzK4jY2NlAxsQ0MD9fT0EACEQiECgL6+PmpqakpssLe3lwBg1KhR6Ovry7gf+/v7KRgMZoQuFArxu+8e7A5dV1fHALBr1y6EQiEefC/c3d2NhoYGTj4Y4gfAnj17uLm5mZOh37RpU9UDT16GOJ4qNDc303CAh8MbB7e3t5fisPb39xMABAKBxH6KLw8MDBAA+P3+gvZhTU0N9/T0JJYBIBKJJGCMLweDQY4fBHV1dRyHv6+vjxsaGjgZ+Djs69evx5gxYzgO+6233spExArsCoN5woQJlAvkUChEwWCQhgMcBzYQCNDAwADFga2vr8fAwABFIhECAJ/PR4PAUSh06CaZaDRKgwCmPDZ4AHBSFB/yWF9fX/ygYQCIxWIc/zu+HD8AampqOA57JBLhYDDIBw4c4FywBwIBGY/qnZ2d3NLSwl6O6OSFyNzS0pICczLIfX19VFtbS7W1tdTf308DAwM0YsSIFIh9Ph9FIhGK/w6FQohGo6TrOgGAruuUDHB8ORqNUm3toc4YsVgs4371+XwJkEzTTCwbhsHJsBuGwX6/n/v7++H3+7mvry8BejLw0WiUI5EIx4FPB7qmaXJ4RMdgB9gkyKUC22XReeTIkbRp0yYRj8ymaYp4amGapkiOyMws0oEch1bXdUoGWNd10jSNYrEY1dbWJmDWNG3Ib8MwKBAIZIU6GexIJAJd1zkZ8Phvv9/PhmFw/O845Mm/04EejUYTgA+HvL+/f0gkT05Zuru72WtRXKukNxsOh0VTU5MYPXq00HVd9Pb2Cr/fL7Zt2yYaGhpI13Wtt7dX6LouGhoaRF9fnxBCiFAoJAzDEH6/X9TU1AjDMISu60LTNMHMQtM0oWmakFIKTdOEEELU1NQIAJqu6xoRCb/fLzRN0wBoPp9PE0IIXdc1KaUWCAQ0AJrf79d8Pp/w+XyCiLThFggEhKZpmmEYmqZpmt/vFwCEpmkaEYna2lohpRSmaQpd1wURCWYmTdOEaZrC5/MJ0zSFYRgiGAwSMxOAxMEJIPE7XqbUNE309/fTqFGjEAgEKBqNUiwWS3wr+f1+OnDgABmGQfX19dTU1ESdnZ247bbbKhrs/wf9xATduyYJeQAAACV0RVh0ZGF0ZTpjcmVhdGUAMjAyMi0xMS0wN1QxNjo1NDozMCswMDowMKZp2WkAAAAldEVYdGRhdGU6bW9kaWZ5ADIwMjItMTEtMDdUMTY6NTQ6MzArMDA6MDDXNGHVAAAAAElFTkSuQmCC;" parent="1" vertex="1">
                    <mxGeometry x="540" y="414" width="60" height="65.61" as="geometry"/>
                </mxCell>
                <UserObject label="configuration" linkTarget="_blank" id="88">
                    <mxCell style="shape=image;verticalLabelPosition=bottom;labelBackgroundColor=default;verticalAlign=top;aspect=fixed;imageAspect=0;image=data:image/png,iVBORw0KGgoAAAANSUhEUgAAAL0AAAC6CAMAAADMDLy6AAAAnFBMVEX///88mdQkicoId7kQcLPN4fIdkNEtlNK41ewkhcQwkM8AcLYAgccAdLgAcrcahskAa7T4+/0AfcYAZa7q8fja5fDx9vsAecRNmNDF2u3T5fNgqNrj7fYIjM+myOW/0eWtxuBCg76XutlRi8KHtdyRu99bn9N5tN9srNqZxOUofLuOstaEqdFkl8hLn9alvtsAYK9xoMwAU6c4drb4K0eLAAAJTElEQVR4nO3deX+qOhMAYMQFKyCgSAWt4latS5fT7//d3kBrVcg2Qyrp777z/7nnuTlhJpkEMYz/x38+gnAa1m3ARvKy3U1225ekbggignXPNK2GZVmNyZ/7B0hWfr/ZdB8aWTytp3V7QBHv7SYJt2/mfKuzSYK6TdIx/8Jn/l7Ob3SsTfxH/Knbb57ja+5k/sY2rhsmE6nrNi/RO/Mb5PnVP/8s/Wv8ZfDzf4DXdt08bgSHYbPJ1JP88xxHdRuZER0L+KK+YT3tupoWgPDDbwr0xG/tZjqO//RkF/EUfeZ/nWmXP6eLMp6qz0Oz8R+1KHi2vtObaTT/k5s0L9Zn+XOmSwGY76l4nj7zb7Twz5t0PF9PHuBXDRagbz4DL9JnCWhb7/wPDu8Mu4Q+L2DT+hJoVFwdAPXZBmDdrimBhh+0TAnS5/OnlgV0dOpz8LL6bAE9uz8+eODi5fXE/3JvfOjz8RB9o3HnyZPsBXiQ3lrfNfWwCix27J/vWblS4cgD9dYd1w3sAovVd+637eXVKN31wZFXozTXR9wCq7k+oOxg/4w+oO1g/4p+9CnOlNrq44U8Xjv9XH7a6KdPm4CR101/3Zz/c/qlzOpAU31wKHVZ/44+OILx+uijcn/7bvrK25ZQenWgXD8zHWdcaecyWmHwKvTR+NE0TW9QoeffBtUolfrRs2Pm4Wyxwx83cfjq+mTsmd/hPOOaDnNYgVWoj3s/eMI3MR2rlNXf/nV9PLjCk8nvbMGTP7XReLeSPngZmIVwxrCaECzZ/W1R2ItJBX2wcYp4wve6AHzEac6Lwj+NYgutD9ZeGZ+lzo30cQXlAFk2XP8YGl28/pmKz3PPSBKPKrB59PspecLQ+mjMwpPhN6VmT7TCZkoy5fO2HlY/6lHm/CUeJRq2YR878q59+vpPIPXxmIs3zYGwYzsC7qOuBn5/MKrouz32tDlP/jF/9sQSLWIGfvVT0lH6xBHis8m/5uAlmvOM8D8uKQ2l5zyw13xvzMTjC+z78uqJwuhjGXvudxjLNnSB7TdvkjZG35XVk+F/oZzzRogd7FfYp9tcgNGH0noy+rtS5Yokm/OlcO1loYqj5v3Lo7zfGRdmT8A/QGZH3y3NQ1zGXAL4XmHRj9wENv1Fef2BrFZdmZx5jsHuMltDF4d37SOlemNXCl0TwHd65z8oPkCmh71Py/YKq7RYXG6vZo/XzUduDmnOX4W/oqde/Ao5gYy+6WV3lGQOkClBZg1j0VRhfS9YZhb54xBZYF37jbVgraA3psz9CZXv4BYH/U/2CX0VvRHuIKNP/gcQA98/cXYKlfRGtC41FfgBHvj9gbfNqaYnO3Mg3wHh7f2cu0erqKe1dPgBmT3DlaA7UVVvGDNI2c1iL2l3/SPfrkIPK7vyw09mjQivQg8ru7J8/yRxlUmFXtxhKMaDcNYMDzINOSV6I4HyTf6mvG+nUr1oNXpjCubzhv+7U3Y3vRE8K+O79ofspWdVesMArhpMVuG190tJu0p9sAbzaZnfXokT5S/o6YcR/CinTv8DcvCoUG8YL2B+cfYMD/y/4Tf1sM36V1zPnv4n8MhUrV6muVyMn9lDlvLQ42rFenjZJalz/50oD+C3Q1TrjZFcg7k0/K7NX8rfR29E0CVnzvebmPei1OsNA7hfycL5QF0wUa8PTz5cb/a6GL5y/XTlt1zE3BmsEVNHtX5E8K2Wu4ePvvMMf7NCsX7azPAkEHyvB7nh8Av65F/rHAi++Qi9H6NSH8yHrUs0EfwB8G6eyjXmW8tuVeQ7sNyjUL+8xeP4ngl5JU2d/sMv4EnqwfC9sfxyR5n+9F60I/kk9UuvkxXpo9OQgifxgPE7G8nhV6OfsvAtF8cvn1H/nn66YuGRiV94P0ahfvrps/FIvmfKvIusQN8uZspiYDInGf6JuHJV16flTKmI3xPmnsr6N9HI4/meI+rFVtUfbAk84cNX/PnwC34HpKL+MJTCEz4qc5remLvor6Y/cjKlIr6T/pI+ZNYoWtgPuNnzuGMX3gp6doGlhf+ZwpvMeTjs2YPXcwtsKYbZHZUNvM2ZhddjvVKB1rdB+Pdj3jEAn+1+882dWn17z10d3Ib9L/3+Y0g+GX5qvwSpn/sA/PV9OPDR9JlPzT04fSqb5nP8zXFIDLqTdM2nvFKB0rdp+yiW3U9vM14b3iP/Ckq7CqVfyY/8cF9aao3Ah6NnfqldhdJ/yuNpxyEhdvQ9b6NAv5CdNS3G0St29IuvVKD0M7l5P1wwj17hR9Pf4XjXFROlDxYylWr4wd5aB2sPlzlJ7rn69UhcxhyJ+bbPPUQLEGe7Z//lWjOyWo1E6wR7KDqwnwHukRf45jl1YlcK0YlbbP29wE4iRq4aSDxuqumNgLMzsVvC+3BZtOFH0+cY7MJKes7Gyt/L3Wy6fi8aGl+vVFTZWy3pvZD3leRLkpgrVRd+b1NxX7ukjf4/6ZtNJKIGPvU4u4q78nInyvZTeXsW6LKbzZ4NAE/piMxbt6nHl5813xHs0HOfrHuq6Y354po/PMKPjCP4laqf6InNXL2RXMqu30rBdhLBDHGxQZE+P9r/GvgF9hcou9iyW11P1my+TcI/4X+7F1t2FegN47BYLCAXEcuBLLtK9GS7VPU3k9uosqtIXz1GmLKrjR61atBHb4QTMF8jvRGBm8w66eE3mbXSk+0irOxqpgc2mXXTG11Iq0Q7Pej9J/30kCazhnrA+0866uV75FrqjVCSr6detsmsq95YyyR+bfXGRiLxg/SNu343ZybmQ/TW7r5fnRGvGiD6zr2/GdIWjT5Ab93/i5+J4GgaMvY1fG1GULek9ZZVy6dy+L/2Iat/mtT0ocyIN/py+qdGjR855PBl9JYFfp1FaWyZqUeotxqTGj6udBMBs+wK9FZHhw9LBjOUvjPR5KOec3qPnKd/etXng6rtAW342fqaEjwrEtpmnaEnz2q9eaYco9cyn6q3rC3qhdHfjWk58VP0JM90tZnv1xE9F/uEZf3TpK5vFwoj2A34+g7/wnvNQeoWW281dlrlmXIES4+ht/7CB9eD7vXk+blkkX3rUr88Q4n48TL8Z/vTVttntRiXo+mzfVLjN17BcS6752dV5zxDiWTs9Xr5nO80tvfskKmJZNex8nHf6J9nKBHG29dOY5P8ofl+E0EURWD7/wDuOf8vEH64awAAAABJRU5ErkJggg==;" parent="1" vertex="1">
                        <mxGeometry x="260" y="70" width="50" height="49.21" as="geometry"/>
                    </mxCell>
                </UserObject>
                <mxCell id="93" value=".gitignore(s)" style="shape=image;verticalLabelPosition=bottom;labelBackgroundColor=default;verticalAlign=top;aspect=fixed;imageAspect=0;image=data:image/png,iVBORw0KGgoAAAANSUhEUgAAAMwAAADACAMAAAB/Pny7AAAAdVBMVEX////wUDP+9/bwSirwTjD3p5zvPRTvQRv2nZDwTC3/+/rwSCb97+3+9PP96uf5xL36y8XvNwD5v7fxVTrwRCH0jHz3rKHxWkDxXkX2opX1lIb4t6/72NP60s31mIvzemfybln0hHPyaFL84NzzdWDxY0vuJgANQOUXAAAKJklEQVR4nNWc6ZbqKhCFxaCRTA6JU9o4933/R7xJe9rWQKCqAkncv+7qcxf6CdQuimE0cqV45jNZgi2cfaI7ReupgoUxL5z3/dXQihtYShr+aX0THZcNLFXffBZNlDf1yw+N90kjLcpDroFh3nbV91cEK8o9LUtJs/sUmiQXBpbPoYmP+jH2O9I+Yd7ER93cf6H5gAjd5JUKmnDoI630SsAY+4y+iWfNXqnqmyHTRDmGpaTJhhsFonWGYilp0qHOG5PvK2kGGqEpLIN1z2BvSmKUEgPN05RLS3PfpMOMaTOf0jeeN8y+2dNoxDBpZqGg0AzUPfeMRjPIvgkmNJphjrR4wkk06RDcMwpqfxgT+2YAfhPle5mG1Df9u2ech9lM+uuektiUNP2OtGhdmv4yl/5OzAV4n30TPdaVy730L5OPc89nDdaf1efNaJ+RaLK+3DNa/64rebYf1/91L2ju2c+8idd/E4PzfVz/d6Lf9DLSovx1Wggm0Yw3NJoequpJ/r7eV9LQ3LPzukCyri8rS5r6vPmQXEBV5+dCcs9g8gEr6Witsng+PUr/54wWoTscadG64StO5VxgknEuvDALPcHhXB7rikazX7mU+2aSba+nfLY+Xbdl3AXTdFTr/PNKVd/MJPecJ//+I/k6bc3bUL804VzKKuwrvuj2LLiQ3fNPwfwCjm9duGes3UcuaWS/eVW02UHr0e4zm8TAonTPVwXzqwelcbwiSNah8TsYaEaLHXikOY3QsXFP/IeGyyuCV63A3uPSPeUcRi2uWEm/6mju3ifNlyMWte8raXzZb140zuB+42ikaf2lLkVd4EV76I60K/dEsTCR6aZNhFjpCAfuCd/f/5F+nI0uiM1P++7ZfBZOrWmhbW6F2mG3vH+TIPfEuUi07d1QzdnNBZI1sqgntlK++d4gOOF80FhcEcRAf3n59Ku+xWiLW0/bc89kjfsdITDglOZJY8c9E7BXvsDs9OEUE5v/0VhxzwhxTunvo0Wk/4Fw8eTRZPsogPPKp5YHbatzQqNeuGrpnkivfGo60TaLMc0/Gq8dDZWFiZ22XWIFqpV7EsdYpUybAoyp5wXoNAmdhXkn7ZAIZrSqOpkmBqyRG8UNC/hoDy+ivdKkNL+BrisbJK76gBbPiLu4FJqWLNVAu2k/YDwjVtXxNI31ZLjCi945x6Sjg0ygs05yTH6V/60faaOcFqGRUSC5kDby6wqnE+k0yjsNqW887wvhnvq7PAjx6Va/F3507p5t/KWutwMPwa1e6wxcu2d0scfynqTFs4m0AqW5p8hgMS1GnxsHw4yP3qZOExNPP3AIDWUtBoaZTVMFDW2kAXIByyx1GF+wTT0SxbTMxuye8HoyEaZcMW7qH1qOPpJ7GvomwtaU8DBluJZoiO6pzwUS7X6lJRjG/pNpQJfuJHlhs3smNnKYmlQwbCrNG+rJ+8Y6tE2vfEoJw0OZhto36j2CxKZXPqWEYSKUIvToWLmn8MIQFQ3U7hnZyS1hMGUk2tQzm9JvfG93Pp3O2yyDr3GFkGnQtfF2MBWN5J5fk3lxu90OxWp2huPI8yaxmsMAYEoHl2iC5x/iZHUHR4S631j3SjMMU+QCbz/vBPyV3mncsWhgyrkr+82riv+gWc5rVd3SulIpDUy52NHTJAJ6MqWMAsFvv9j3yqe0MCaagoFp/p25DTYu/OVXehjua+cN4mSKl/7Ugwtn86WSHqai0e1+IhaK/j0pO4a0vQCWAYZxJrnn+0AD/9LTMqQlrYt9+o8wwBhOx0Twenf4HY82Dmc/A8CIb20xao7ommJ0alHqh3yCsWf0RdzDGRrQmL8fpVa/uyQjDD9q41kCn9LefWT1q8syBoBUbzWjPdzQ0/5hDDWWCWIa9A5jOkiygcOko6vTyNxlz4jz6OjUMyGmqWUJ4Lcks3y06Ntn9OeGEdFsOh/FO3Agp6i1z4APqHNWNvTlbjHD2mcAK3AGMK0OU0d3lzRGGObpjtlEOfgexPbnJOUBvAQiyAwT6rbYC2gRjU//neBaOKQxwzC/OZ6B1zM8e66L5ltnNAAYsW08NAQ9Miy8l3uVc2chDQDDsnPDQIMOMsHf9kpXrmggMCxTTxtoPYPX77u6GmkgGDY9ySMtKFJYJsM96fbRgjuhgcEw//urdkb9NkmB/eIrqghzcMkNIyAM88LL6gXn9nUH7tpyX3qR5Icmc0ADhWE8TO+z1eE2jm7FV35mwLnPl/K7Cj8qQvs0YJhq7It0t7t+77apAHvlsrHutrA/0hAw1XfjohT8EjSfyudX/kYacNLBhYNBiocaFgcR2iWMEFqWKhegHP1olkMYzgws1jMbdzBlDqO9qetgpDmDKeeLmaUq71qkcQXDM6VXKmgsuqcrmCavlGXRPd3AaLxS1sKzReMERuuVsqxlnS5gytwSw1L2jZVcgL+fBRnPCPfX5EYVZ6JMfdPePbnY1n7CJEde0FS1yif421qtV9JcnKT6XjA/t7z8IRjIX+S+aUXDxUW1sj+cWvUNyPeVNK1yAe+ivqx9u7dolXuEMfZQmwjdfLPpAN9AllhwMblGQ3ZPrrnwuqFuCaG8UkFD7RvvpGmVGNK44tQtSnMijfaeJuU2cMWC9EpZtKq6SHVtBpSu4X6L+fKkocQ0xRH5V+X4tIZ7LcfYQxS/WeqvNS7Q44zolQqabyyN4JbfA7DGQugb40sNKW7ScEb2SgUNMof2zvr2kG9o8MzC3P8Tcu1p90GQll4pC+eexndnMFcAW3ulggazfyMMLwJhAkCZj9l/txGVp9l7EIQvrc6XXxWIKOBr3zcbncCpJvcdvT2HiNCC6xqKwJsWwlxPJtPA3VP7YBz4xK5Fr2xDI87Nv2gMLQMIm16poAFnnfLd0qeg5/XKNbKrMfYQeEUgdk1Hr6Cnrkp/cTfGHgLnAt5ZHZ6hBbnS992/Cwx2T++uopl/A1lceKUseN/I98KDDTBftp6PNdJAq+rCP713TnEF3gnhU8ybH620ALtn5t8XUfBQND9PgYeUhehgvvwKngvwcMlOx/1+n5/CJfS8tUPfV2mBWEmLzK8Evw0m0g77pZK7s4Nd90slUgUKIh4690pZ4JiGZLG/roTIydnBjrxSloPzaZ3kMA00iEcIgCydeaWsxdYqjcDvI1ulsRmhjefHnNOg69DNLPrXDroQvqrexJL23C+VLI00wXvwSlmFjSjANS8VdSoL7tmT76tE32H/ZVn25PsqHcJWI61Xr5S1YG0e3TW8pNG5WqwIevZ9lcjuOQCvlEWk6XyNDBMpFxD6103602KHjgJCdFTrwwu9IiCcHe1OBe6seo/rSohQ7jkwr5RVcDDNgPKxJhXQXGBwvq/SARahBept794EepFooF4pqzDTKN7RHKqKs2HelL4/VK+UddDTcP4hY+yh21az11/G5M/pl0q3tJFm8F4p69aUdape0h68bt9KGp65my//AxRHtjQ0lrH5AAAAAElFTkSuQmCC;" parent="1" vertex="1">
                    <mxGeometry x="345.4" y="50" width="60" height="56.47" as="geometry"/>
                </mxCell>
                <mxCell id="80" value="Legend:" style="rounded=0;whiteSpace=wrap;html=1;align=left;labelPosition=center;verticalLabelPosition=middle;verticalAlign=top;container=0;" parent="1" vertex="1">
                    <mxGeometry x="640" y="440" width="220" height="160" as="geometry"/>
                </mxCell>
                <mxCell id="81" style="edgeStyle=none;html=1;exitX=1;exitY=0.5;exitDx=0;exitDy=0;" parent="1" edge="1">
                    <mxGeometry relative="1" as="geometry">
                        <mxPoint x="650" y="570.715" as="sourcePoint"/>
                        <mxPoint x="730" y="570.0000000000001" as="targetPoint"/>
                    </mxGeometry>
                </mxCell>
                <mxCell id="84" value="&amp;lt;actions&amp;gt;" style="edgeLabel;html=1;align=center;verticalAlign=middle;resizable=0;points=[];container=0;" parent="81" vertex="1" connectable="0">
                    <mxGeometry x="-0.1896" y="1" relative="1" as="geometry">
                        <mxPoint as="offset"/>
                    </mxGeometry>
                </mxCell>
                <mxCell id="86" value="interaction" style="edgeLabel;html=1;align=center;verticalAlign=middle;resizable=0;points=[];container=0;" parent="81" vertex="1" connectable="0">
                    <mxGeometry x="0.5937" y="-2" relative="1" as="geometry">
                        <mxPoint x="48" y="-2" as="offset"/>
                    </mxGeometry>
                </mxCell>
                <mxCell id="85" value="tool related files&#10;(except in the middle)" style="shape=image;verticalLabelPosition=middle;labelBackgroundColor=default;verticalAlign=middle;aspect=fixed;imageAspect=0;image=data:image/png,iVBORw0KGgoAAAANSUhEUgAAAS0AAACnCAMAAABzYfrWAAAAkFBMVEX////m5ubl5eUAAADk5OTj4+P09PTx8fH4+Pjv7+/7+/v29vbq6urp6enY2NihoaHS0tK8vLyRkZHJycmzs7OamppeXl7a2trMzMyIiIiCgoKsrKx3d3c2NjaysrKWlpYhISFsbGxWVlZhYWFNTU01NTU9PT1GRkZoaGgpKSl7e3sLCwsUFBQkJCQQEBAuLi52B3gxAAAdR0lEQVR4nO1deWPjKM/HTgLGR9I0TdM0nd7TTrszO9//270GHYANztH02ufNHztsakXiZyGEkEAI8xlnWVabRpFnWa5NS5qWNC1tWoVpNe1jYybITKMcE0FlHlOmpZigZgLzfB7hpZhXRbzGZZ9XY3nlAS+Z4pX7wnV5qQivrM8rDoT4f7T+x9AafzxaOTw0jqOFPch3Rgt7kEfRymvmtRda4yhatRbywufFaHm8ImjVcbSGgBDcF/hV04KHTAseMi1+fRkTQA+YoDItECgkYIEyJnC8FPOqmBej1eFVhLyscFKrzd3LaPR7onfjpbbyGgBCjNsPYDZpW/Bk25rAT5sW9Lv94wTeHLcMQUMEY/hpQwCymMdA+IAAusEElSGQKV5GuPGAcLk6uRzB51H0eTUpXlY4MC4BwVYg3ItgtY1aoEBtYxbIqS2PqXzPMeXzgjczZO1UrlZ3I/rcihSviLVzprjO4sYlNn6/Glpg7aSSUgnilUV4wfiVpyP3ufootPLuQ+Msbq8BLd/UewSM1rhrrwOC7tww9tBqdKv8m9n67v758Wo5mze6qpvk3KAePbBGcxEK19Ror2O8dGQeGu8CRG0+ZfspTEObVmVayrSUaVWmpU2rMC0mKJs+gTQtyaRM0DBBh5cjkEot1j9Hwef2+WZaCEPQ4yWm/9JD9r864CXk8maiHK+kcJqF2wUIC2vMJMrQJIKWJOw1jF/Tghcx3tleA0HLq1EXl79Hsc+P5UplvbmhviCszpbmn7tAuFwbKE9ivKxwFQsXmYcGgBA8Zj/TO22K+Y8oVPC5m9rueRaoOcE/zZS4hYHoe6f1xv5xVb+Xd/qZaIlBrCxedYhWBl//HhfZyraqAC11D3/P3wetPCcXtm3BQ21rjA+1LbTXbcsSTNoWotW2YCQaAhSobaENJYKcW0xgeVmCSw+Xp6vlfHFxcjI/W975eM2RlxVOgIG/b3k1S2w5XuNM04/JHi9lxKxYOJy48nwSAlFGgRCF+WjzMY3KNJRpSdOSpqVMqwoeSxKokED1CSKkNUNyuihEZe1wqZSshDz7RX/6KRyBANfhsRVeiSfT3AifgzrjHyxApCoUbu9+IYF56WSv2xaaRNaSFley1wR/zi/CPNYwgXsR6Mu3j+Hc4BM4Xjir59kEenY+L+uyw0sVV9jvF83CIcGtyloVVmChMrLXltRpZRbyIi3hfgXC5TmLmQDiC3inyiDysKqanrWrNtztmWaPUYLCrRrDwarRjyJci3sG7z/ly5fKPLaYjWNzw+qFOv13rphXM7VfbSwM4ty0l3WA1sKSANITcUy08r69Lsa+AnbtdRaYekfQHYnB3OCUHRcyYEPn7YpF4+gIeRmCG7ZZc/sjyMuq4uiv5ZVL+8A0C+y1nTVehcX6SozjIxF4NYGB3wqEMp+q/ciwJU1LpVoRgmHSyrXE9eWiMC1hR9GsihKInLyKf+etV+1xKOy3i8LwklaNXkRIig/M7b9H6Rc+JvilowsbaIkziSktcXNDFdPIYG4AjdTPZuiYFgyVy/jcwBbrVNU+Lw0Y32oQzurfOuRlERy1Deu3nkW0pGKCjgexBQjBY/ajvNNn25cWrmtAYx6Nnb4iVveTXjTBTninGoRbWxMW8lrDCBTgaPzifn1DX/6J5jj0iV5FBC1Nq+uN6MdewFI1HlrzkNc/9J31NP49OlqsgB177UzisUYigUWfV+bFI3EsaBH4N+vz0tbB+pfmBovWqeVFwo0trREYLFwhDhmJUSDAykvzCVsybKUeS5LG/ijLPlj9xwR54qei6v8VbPe9gO+qa/g/77HCmrJz8xUskObVTsLtAsQ+HgTAH3oQMY10WtLRSI1gvTqw3KzOvNb4xwVoJPvXIFxp0bpBAlxTrzwPorLfXBuuyroSZ81+HkTHMwqA+EjvFH2CKa7zRs+xuDwusf8akrwfaS5njJb1Tq1T9Sg5TlsB2MbGZdo+O6u/pS+Ppnvl9Oe0jxauC88thwhaQLokghI8jSuJe13FEpXWEGj7x1P9Hr68W0wGCni0VfVfB1YpGa5gJOblOXy/hrjX2B/1IBx4WEvB9hpWR88X8NjDCC27FcmitayPs6o2IzEMTwxHbCIBmGTEphsUKQksaR9z2uXzEgjWUiSjKLDQvpHEQU3RzL1crtc0iVxXlgBG7abcKlzAawAIwe/wiNHAyOpS8TAkAobL00iMtFyLrrfiInTKBuQv3epSz0fdz2WBWmJ/b94bLodHA3nMvq936mwW8zpluMjaoc066fNy3img9bNy1k514VqbXlhSu264EN/Nl/cMvLPXDBeihbPhQgyhhb782JsbdO6H9V9W5uescOBMlMdGi+21t5hsW5PuqjoRBcUdsuTcUCJYEyKFN1MxXPYxWjfWfhS0x0sD8hdZsORfoMEbPc7tDhlkNNg1wQ/LKxSu68uPexNXHIg37L7GCKIbnBJf/UQFpKp02lWWGDloNWsLL2V925nweOlaVXo1PztbNYXCrWEjuH3yVSaE26dftPt6yM4+7630d/bH/Z19RWBFdvY92wWtGfGyHNqpJO/u7DdWB69QOOfbwfjNvTFV2+X1ov3O7eyP2bj0dvbzHYB4d++0ZLBikeYbgguesnGvSJafxytb4PiKWSDf2oEnP/pWcfmyY+A7aJF2gadkY1EdtLq8YGn4dztaNb6HY6L1ztluRWDgI9luiqPv7XRW7ZA9MW4IrclgRgPYt5E8arabFT5rmgbfXNvC7MamwQTC9itMjDQtkKptNUyKu+1EqsxjABmF9SY6IAh4ObiaLi9BvByBFlZnfhYgnEoKB7PGWqWFY4KGeJVdXgEQqhGkhe+SpatYs4Lx27GhSwRrns768sev9Que5Lib05z747fGTAmdRez1G7N038k7pbXhZEvWyJJnxl0ywK3rfqUG8+WbBrK6rut0TvMX8+ULB9aWHBscjOud0LKLv1k9gFauIUhoAjnvkGMTJHlNuklek52z3UKTeO4Z+HF8bkACMvXrchLPQMs84eyTJ5knXMde5wXGqp/11olrKNutD8Q77lVjWtCyGPf3Pnr7xzgYl8TLxdI6kWZhvajfJFwnqt0Kl2mJoYxbHef1hr3qg/wtp7YD/hZ656NZ++X2nGaEi3kBWv25QZCJi/tbjcwoG+xlUid4fUXvtKa9m5naAS1MS5Jii3d6ir5GHK3q7J7ckWf5VfLlBzPAqQd5cc9wbUULI6AP23QLknOvWLgArRVvJhlHayA3P5EBvg9aOb0+D63Mfwd5R7dyX7eybn1T+7frEcPFBPy+M38mRbCeBPMSxCsQDue6uoOW/d3ps8Pq9kT2eXmzW9gvFq4DhOuX4yW2TQW7Z4B3ph0X1NyooTmxvCCwhquDKJP5rAwnbMNrcu+wGm1kzaRHnRNZC9/BO106+WdqwN9CEB63eKe8478QLBzx8labz9d1/R2rOW1g4ZFmxiRanPu+Ba0pA2IyBb3qIDHmjIHb07EroPtC1ZzRip1gnQgo6DXBFZsblAPLwDW0TnRgGbhyRit32xiPdleRLVC0OiinGGKqdGlonQgFOHbpbetpzFrdhmVNC8KypmWCsXaZb4tiREigTatiUktQ4XbrfUV7YbOKeWnHywOrfaTs80LhCKx/EC7JwhUzGoKLlqkvXJkUznDQIS+xAxCp+Fa6Ymc4vqVljfEtdY42plFOu3rxLQrHv/BgjMe3qK7nWaA1n3N8i6yjyfU6fjVnCMRxvVP1+vNGW4IMTMm9sUC0j79sf7njA50QCKcOrph3ymCVFcFVggVCwkf7c9+qmrP608r9Y9FMppTfX9seeHCFaDFYvHc9i8blp/xckTNcdppFsK7Ao3tvtBKranooWFXzNnisYqcVqLoddT5m29ksXB1cjpcOwPLgCquDcgfWI/BycPHvnlYx4Tp79N6qOlKJlFhVh0C4jIla6xryJLilTAsSK0yLEytqJoB0DktQ9sFaCCIlLJal48VgleZLxXCVtcehbTFY5jnDizJx5rS93ZKgcHVCOO6XTPWrDoDokCKBhTW6RRvLAB/aqy6aLlgvE+XymCpn6im3iG2RxP1jNxj9/eOGndechCNTf+cRuJwpI/lwxc5ee9XvkwHeLV3dBDnNDJcx9ZaXG4a8uqRHAl4MlserOvcY2aDY9zqZpcAyZ/IUF2EPsgCuOgDLW4s7uJiXs1m+vS4cXDPVj8u/K1pBvu1w/lYkCmo6XyFYNaFgUyFDe13g/LU0a17fwLuIq4OLeHkGPrDX1S8GaxKx1zm3YlHQZP7WpD83BPlbtgBHc2VL0NJcAOO1QgJoFRW62HlZkTm6Fz6BbdF0vyzdQwXW0yAHfqSwpCWCdV8WHeFKctBKvUW4Tr8ivYmQxoHYnncaqxPomsQGbVZtSDUhoboaOaZQwYwq7hf2Rzjv1GjJqT+SGdS8K5znzXrz0GDFzv55p++SAS4JLBjkJQ1G1YkmrE6DAy8sKLobe0EcbJEGg9WLXPhg7X8O1Wf68orBInt9wr30eqCuRpFPC1d3Z9AiYXJPvZ8J0eJhqA47tev9MsC7tRiudo6U/QeDxfbahwtHYi+Z9h+Cq1vNaYIKdyFY4W6cJKdUdbPNByt2hnfIXKnpABDyrZ8KO6UL70sajPclfuHqDenziMcUjBZl5xfbVYEu3U8UnT9L8uA3bxd+z48IX8QBNWQZTlsb46Tzi6ipr7jdw2A93/9GsEqJHvlFGdlH1QvSrLyrJWsCK6H9Y99eD3gQu2nkkX15RUZE5t4gJ0fp3v4a7hbeXpdCKRO9O/ejCdbUdywQg9WzQP766BuesshmpBr7JnHK/aWyxDsgVdPNAnh5cHV64GbDDlolgaWHcmze25ffe1XtzQ0FwSUDk+jgAkW5IlLY3jMrXclwTQJ77YEV8qpeCayu5xSsqrd4TkMjcXBVbetZwI+lluQWFMVwqwpbjqAkuIRHoCqe1CwmP4Tq86JowkJ4vAoCy9bi+ARUb70RKOYOwoUtRyATBANAvCXHxiNw2pV750GQqX+2zsJJZ3UJszqb+oJ5KbZZWXfFx7NhoCVuJTu44vusHJtepDmvPLicVfB3tf4m8iAK39RbXm4YBntdLS8Cq2ThPtg7PVJc3oPLy/gvPbheU1kjDFcNvDybFaJFCrxRSXv9Ab78nmck9QONloAnKxXY6xWhtY6fkTRpBwfCNckMLwTLRnzG/rpBXhFYk8OioNUkH15Vb4m4YjUnVrbYSLSpbIEgtimKgZi0qXExxZFQFGNaTIAVO4agcHF1j0DS7upVUZcJXphzeS0KVaHNOi808qKyG2fgdxEuyUsRKVYiMWmKwOclBL3Dvao5xxF7PebQu/LnhpoGYx2J0NHJpRau1gljsDq8mtDAe5X+Q7s3MV6WIBINTO4UvVs1p9upCKwC+V0ywguzvkyqqHHH3DDsWiACq0Be/4ET06Xb2PF7gLbrJI1W699PHFgPPV6SDXzHXn+KL3+s805LDr372RM4vKZM2skyMLxMlxcOrCCjIafQ2Ea/PaNhuDpoy3mnyWwZk63SSUgpBxNSDIHkweiyZSqMbN0leUnLi5zSh6r2U3mM8Gjgr8WAcIPZMpaXdLyG0oa6mTkerwOqOX217Wfp0lHTZtsQCBCs+37FjvDPTsbDxVrN6mXpXhJYfeG6Yyr3hds3S/cTqjm9DBGb1jtnwz2YAe4Nw64FItehYl6f5p0eHa3MaZch8MAaRMuzWSFakoahlvPT+SejdaxqTi8BmPcEZRmAlcyElqGBD7LdqAxlo21K5lqEwu1jr725IVIdtHM151s8CPP6u1m6vIfvwHIamUdmdTov5MHcZBGeFYSzoTn9z0YyLkMtCT2Iwcz3nkYyrwP8rV2ydLf5WyQQ7eG7A4+C8dvVcwdqj9eVZ+AheeAyhVYe9bcOrU+MZ+m+VbeiaHGGCA/DlLWzBLzc6aFFYCkP08vP9k63PLS3brXyuDsrHkiglG55NivkVTFYUF0wI7g+WbfetqoGe+0CjfaxUx+soRPTEaxfXV50HnMLFnpOkuHKt62q986x2W1V/Q5zIrw51K6HLeulGsfXr7KXbe4ZeBKO4RK7zIl+xaw4ypx4fH+LqzlPQWMGT7UmY/Srb4F8A8+8PLjMdU7f3zvlHqjF6TzRA0YLh+Fd3xcgzVIhL4RrXc6vp+pLoPWWdaKHFobk0ic7sGbd9XgpBqtbKUx1KkYhVXbUdWIPrR4QtMz3Tw1p/IM5mh0P5oDYCyzziQAEalKnhvhgYVwACciDP1M94aSXf/IEdR878fKFS59QshUIcbz4Fm0vxO/zcaTQDTLwd2XeOf2GhuG8z0sLP13nWeaH2OtveJ+P06zeqdZuNpwvM92zQF5J8JP6HO/0w9Fyw7BzDhWDpW2w5kzlIVoP8Od/CK4PR+soez55vDoIetDzGD2bJXkfpuWVKbJZGo/QOlOBx4hgLXBz5IfKI97pO+357HgC4PZD9uRepw06sLq8CkRj3n6Lx5WcFZpJ6c8LWSBcP2WxVbgjHYV4vL1qfhFhblG8OqjmFbLbGURed56BxxPHWgPGwiFYJ+0faafS3Aj1QXvV7+idpm+o4SPkH21Ay18f+8sdkRfsSeTA65zBaglq1q7/gC+fRsvlNz/JAK0yR82CZVGeF78cXHUAliFguNSHZ4C/JX8rMIlb7/Pxk8FbuLwM8HKFYHG2OWnXdatKBNaiIIJ6RdqV75W/xfPQYFilD8T+p3n3CfY7OZwX0gSXcgTS+lLzwuPFR12XVDd2UjheBcNVBMJtO807EC7Vrx4Qgl7EW/JOu/Gt2NzA71Cjzbqj6oEnIMW5QW7Wdpw7e12R7UJ4p4GWkHb9aP2ugbzT8KT4g/NOecx+lHeKq+KrduVDcEmIvSzmhbFF4Oh7vIqg5GUqwkhzQ9qlm/+eL78ksFqrwHCZs5jsiDO/27fXlQfXCfOiuYG1S39GNed+tRixSHMwNwQjkXzLK+DFcOlG2b9c1tF8WwfXRcW8eG7w4IIu+yPxDdWckZEIlTX73sxz0C1AFU+GryV+R/74UwUwvhZxUjL1J2VMuIJtV3WwcDtdUXRYNWdYQ5a8z6dz19uKqhPX7pY+qn3Cor1VqJFOS+5pGMa0RLNXX2cDWnKEGrKP8U5bDnz8yGjjW7vaP/UHLjSPnQFuD+W9FikLxG6q/v6+fFOtZn8JkZdpODdoB9dcp2IvGNKaJu012a6/uvkK1ZzBSNzrPh+tz7xT6l6ZF40O1q7Wg49U7EBf0O+Yxkdi22oYLmfg966r3joSuWj9gFs2dyGQYu6dQfJ00r8MtOQ7HgZ4lRgvnRYpXmTqX95+e2iSQIQv4tgexFhPXxxWPy9EZFYvfyNYIr26bPguwWmoJR4vNxizA/aqP6qac8g7ld7ph3eLCC8+q8DmwQ/uDD65aTOeB0Fw/VHf05cnZ7QdghulmyhacCXkndy+j/qD4Urk2BBct+rLVXPucJ8PGZvRVVM1+Zi9tGClC/a76VXf93m5GwVj9rqdG8ZNxnBFeZFwB5+RtE/EJhIUGbiUXhc4dh5XRZoAHroRw9feQwCGBuNJkQrASCrgrrYJt41XPGIzHA0Md2+2ne0WehB06tOsyoZ2iuwzasedIoKLtKRXzUmD8cWY+mNEA/OP8eWplP/CfJfMGoGD85+FiEYunHdKvDy44jnNDFfdfCNfXmHNTjOcY1O6yyMTaHV4ObgSGeD1hOF6nwxwNInHOO+UswzgInLjHqWyJ2CjwgZE5wle7rxTFs7BZQkiGQ24Z9vCVYe8jnDeKRxXS5uORRPffW14l7JhgpoJYL+y8Tc4FUx1G+mR1iEvS1BaH+NC8/1r23ixqb8oWTjeTAUCTdol67hwHsEwr97uK2nhkc9ptndwjx74koc8z3pZuqYFHtmqX7EzkPX17Jv6PJKJ1RBcTXPoOc1lFAhG67jeaQ2qNYnE5UNegNai2SvLz4Mrbu08U/8N7vPJS7s6XMvtaFm7dVbvlxOJcF0k5wbP1H/dak5KKMNzk6Rvr2lTP8xAg6qNm7qT7ZbMTsa5geFKZSfXaOr/QJbfsbLdMn5zpgVaYlrw06ZV0ZvL+EVkrC+YrEgEEgnszs699Atw5Opsc3ZRFyEv8LceiVeR4FV2eSFcsFDXTMAH8Yt6Avldf1RDvKxwUvR5cW+2AnGQv7U1S9eG/84a6kFTzf2LWf3xa4fMrYjb68DfCu21b+qjY4rgum3d1EOzdD/IOx3BTIezm5riXXcg/tRHS9voVr2zd8o98OBK3DZJcOnma/vyYGNL7IH0krbt51o4tODQ/vn+aHlwJeYGciR+19kxffmj381pjfyjBBtadcGyxyOSfw2+xibOK+LLO+EcXCl7TbmF/2pLcKS7Od94x92kOydmdpd1Df2mI7xHf9frNd2NsnCynMGkiHPiZMucGFTsBKY+FA79FhyM/5o7Jr7qfT7NGaFlZhe07qvCcKBLigrWc/vslTqoBuXRM/XRnGayXU/V1/VOm41DS0PgZl3SzdNQ53nDaFk9vDsMLYLrIoVWa7ugYvZKfu59PkNo8UjMM2VjEXcFrxPlgxWffQHQQ91bJwaOSrJix8EVqeY0pKRdJ00XrYPvfQ19v44rp/d25Rob2zo3BJi8XLj7m7IG+4d+pr3abaazKuTVBLw6wlUsnIMr9GmdcApi9Y9V1+GO+bRbgHifOdEuav8pjA2Fu+41E2T41RKiT5W+O3RORAKEC1IoYvYaX9jqGHPiO3qnE/Pm7EBcuHBx2wOrTb80+lt2mpzuGmmOrI8RrilpSS9OWz2Cpfyq3insZc3blQ+ETnTQA+tS3CFaNU2RB6OFcD2n0MrBjP49Elp7nvrjm/rYOtHY61MApMSGu5vT8Fp4aJUb6ml0nZjTTJoSzlogC9efvnA0N4AT450wdPCpP4cXxZTpohhMV64LVDLtCOoS9ltflSUFD3MpDi3AsQQWrrXoCUekYBiyKlW61CNIAWFhPd5pZRTyr6x8GzmlcebZa2VV4cza0OwELdx+8a2qK9zsfFMN2GvrEi8wzeTrVXPW4JPKJboS/jk24EFoywsM8H3V9xh3rEEJrJ2G3SbfO4V+PXtofTlf3ohhIVnbAMN1gBYsi54sL5zc581R0NKz0dMqiha4EJ9WzTmcv2V+wzvIxnzpcnsh1XtpbShMiI9l3t+jDw9QTu7Re/kA8BoWon/WCGiz2iF/K8IrqObcKf8jnWKRzDVRDNazCEnhRZctKSbNnFQH8eoSYP3UopcIA2Xr9+X20qVtvKJ5p8PVnLvlnVZcWb+sfYLa+g9/lCGA7t3JJK+xr8zpih3MY8IConkoXDmBF3d9wH0+H1fNyTehrwKroOyRiZcaS1XMjvIOZ0MNeqdsgfiseuFbILxIVX9dX94IBNEHqHny0LJx+EWjx5Tq1xwNLR8uRgsWWuGpXZ9RzRnm2/bytzIIi99of+g2kMCsJNUKz+t+vm1QHbRDxY6bG3BnaePZa8x8LbfVYiTyt0IgINNZSsp5ppY0LZVqRQj6pLD7VXOhjPkODgq/uqBNoHmZ4iU9XnIrL2wRXD8uVDuNtN1bYDT6uhzql9yxX4Lf3C55p5EM8EQ1J765m+UkYy2xGmlrMjiDfl50NTJ+x47j1fUguvUPtG/5+9fybPZAjG5kJAM8wevzqjnrupMHMR55n5+rWjGvI/jyluBu1P9ciSFr9/m+fKqa88bvg2zy46PVv8PLHOB/TLS21mIcOBL7dXqu4udhpYjgOCORCaa/Aqx+TRK1GIMjMV6LwWbu6KWPsVbxSnq1KKrDOQzzqsT0kkrW/rxOS7mjcNuB2MeDAPhDD2KwmrNfsZNNWrv78mvTqKa34juGB+G0ZDW/nm3mRtBxXyMHPYhkddCHVXO63AS5MiS7WaC9vVOPV9bUNURnI7y+oC8fRSt9YvreWSOfcQb41mrOA1fV26uDIiPxbatqse2MpLevqt8rYhM9lCWoonkrrzcIdyiv/wP08hWRfqFw5gAAAABJRU5ErkJggg==;align=left;labelPosition=right;container=0;" parent="1" vertex="1">
                    <mxGeometry x="657.96" y="520" width="54.07" height="30" as="geometry"/>
                </mxCell>
                <mxCell id="112" value="Actor" style="shape=umlActor;verticalLabelPosition=middle;verticalAlign=middle;html=1;outlineConnect=0;points=[[0,0.33,0,0,0],[0,1,0,0,0],[0.27,0.1,0,0,0],[0.5,0,0,0,0],[0.5,0.5,0,0,0],[0.77,0.1,0,0,0],[1,0.33,0,0,0],[1,0.5,0,0,0],[1,1,0,0,0]];aspect=fixed;labelPosition=right;align=left;" vertex="1" parent="1">
                    <mxGeometry x="674.75" y="470" width="20.5" height="41" as="geometry"/>
                </mxCell>
            </root>
        </mxGraphModel>
    </diagram>
</mxfile>
